<?xml version="1.0" standalone="no"?><!DOCTYPE svg PUBLIC "-//W3C//DTD SVG 1.1//EN" "http://www.w3.org/Graphics/SVG/1.1/DTD/svg11.dtd"><svg t="1647395468366" class="icon" viewBox="0 0 1024 1024" version="1.1" xmlns="http://www.w3.org/2000/svg" p-id="6184" xmlns:xlink="http://www.w3.org/1999/xlink" width="64" height="64"><defs><style type="text/css"></style></defs><path d="M884.444435 93.181654H139.700176a44.790874 44.790874 0 0 0-32.953285 13.629223 44.790874 44.790874 0 0 0-13.629223 32.825312V884.316461a44.790874 44.790874 0 0 0 13.629223 32.825311 44.790874 44.790874 0 0 0 32.953285 13.629223h744.744259a44.790874 44.790874 0 0 0 32.889299-13.629223 44.790874 44.790874 0 0 0 13.69321-32.825311V139.700176a44.790874 44.790874 0 0 0-13.69321-32.825312 44.790874 44.790874 0 0 0-32.889299-13.629223zM139.700176 0.016637h744.744259a134.372622 134.372622 0 0 1 98.731883 40.951656 134.372622 134.372622 0 0 1 40.887669 98.731883V884.316461a134.372622 134.372622 0 0 1-40.887669 98.667896 134.372622 134.372622 0 0 1-98.731883 40.951656H139.700176a134.372622 134.372622 0 0 1-98.731883-40.951656A134.372622 134.372622 0 0 1 0.016637 884.316461V139.700176A134.372622 134.372622 0 0 1 40.968293 40.968293 134.372622 134.372622 0 0 1 139.636189 0.016637z" fill="#333333" p-id="6185"></path></svg>