<?xml version="1.0" standalone="no"?><!DOCTYPE svg PUBLIC "-//W3C//DTD SVG 1.1//EN" "http://www.w3.org/Graphics/SVG/1.1/DTD/svg11.dtd"><svg t="1646206697350" class="icon" viewBox="0 0 1024 1024" version="1.1" xmlns="http://www.w3.org/2000/svg" p-id="15977" xmlns:xlink="http://www.w3.org/1999/xlink" width="64" height="64"><defs><style type="text/css"></style></defs><path d="M489.7792 51.6096l22.272-23.04 23.2448 24.0128c11.5712 10.0864 117.9648 96.6656 328.192 96.6656l12.8-0.1024 13.056-0.3072 31.1808-1.024v438.8352c0 112.8448-46.9504 276.48-379.2384 403.7632l-29.2864 10.9056-10.8544-3.9936c-349.0304-128.2048-399.8208-296.192-399.8208-411.136V147.456l31.1296 1.024c195.2768 6.2976 307.0464-59.5968 343.7568-86.0672l13.568-10.752z m21.3504 254.9248a102.4 102.4 0 0 0-51.2512 191.0784v116.1216a51.2 51.2 0 0 0 102.0928 5.9392l0.3584-5.9392V497.6128a102.4 102.4 0 0 0-51.2-191.0784z" fill="#cdcdcd" p-id="15978"></path></svg>