<?xml version="1.0" standalone="no"?><!DOCTYPE svg PUBLIC "-//W3C//DTD SVG 1.1//EN" "http://www.w3.org/Graphics/SVG/1.1/DTD/svg11.dtd"><svg t="1646210624289" class="icon" viewBox="0 0 1024 1024" version="1.1" xmlns="http://www.w3.org/2000/svg" p-id="4067" xmlns:xlink="http://www.w3.org/1999/xlink" width="64" height="64"><defs><style type="text/css"></style></defs><path d="M937.768421 681.768421c-5.389474-21.557895-18.863158-40.421053-40.421053-51.2-5.389474-2.694737-13.473684-5.389474-21.557894-8.08421v-223.663158c8.084211-2.694737 13.473684-5.389474 21.557894-8.084211 40.421053-21.557895 53.894737-72.757895 32.336843-113.178947-10.778947-18.863158-29.642105-32.336842-51.2-40.421053-18.863158-5.389474-35.031579-2.694737-53.894737 2.694737L595.536842 107.789474c-5.389474-40.421053-40.421053-72.757895-80.842105-72.757895S436.547368 67.368421 431.157895 107.789474L199.410526 242.526316c-37.726316-13.473684-80.842105 0-102.4 37.726316-21.557895 40.421053-8.084211 91.621053 32.336842 113.178947 8.084211 2.694737 13.473684 5.389474 21.557895 8.08421v223.663158c-8.084211 2.694737-13.473684 5.389474-21.557895 8.084211-40.421053 21.557895-53.894737 72.757895-32.336842 113.178947 16.168421 26.947368 43.115789 43.115789 72.757895 43.11579 10.778947 0 18.863158-2.694737 29.642105-5.389474L431.157895 916.210526c5.389474 40.421053 40.421053 72.757895 80.842105 72.757895s75.452632-32.336842 80.842105-72.757895l231.747369-137.431579c10.778947 2.694737 18.863158 5.389474 29.642105 5.389474 8.084211 0 16.168421 0 21.557895-2.694737 21.557895-5.389474 40.421053-18.863158 51.2-40.421052 13.473684-16.168421 16.168421-37.726316 10.778947-59.284211z m-406.905263 142.821053v-110.484211c61.978947-5.389474 115.873684-37.726316 148.210526-86.231579l97.010527 53.894737c-8.084211 26.947368 0 53.894737 16.168421 75.452632l-202.105264 118.568421c-8.084211-24.252632-32.336842-45.810526-59.28421-51.2z m-94.31579 51.2l-202.105263-118.568421c8.084211-8.084211 13.473684-18.863158 16.168421-29.642106 5.389474-16.168421 2.694737-29.642105 0-45.810526l97.010527-53.894737c35.031579 48.505263 88.926316 80.842105 148.210526 86.231579v110.484211c-29.642105 5.389474-51.2 26.947368-59.284211 51.2zM191.326316 398.821053c16.168421-5.389474 29.642105-13.473684 37.726316-24.252632l94.315789 53.894737c-10.778947 24.252632-16.168421 53.894737-16.168421 80.842105 0 29.642105 5.389474 59.284211 18.863158 83.536842l-94.31579 53.894737c-10.778947-13.473684-26.947368-21.557895-43.115789-24.252631v-220.968422s2.694737 0 2.694737-2.694736z m301.810526-199.410527v107.789474c-61.978947 5.389474-118.568421 40.421053-150.905263 88.926316l-94.31579-53.894737c5.389474-13.473684 5.389474-29.642105 0-45.810526-2.694737-10.778947-8.084211-21.557895-16.168421-29.642106l202.105264-118.568421c10.778947 24.252632 32.336842 45.810526 59.28421 51.2z m97.010526-51.2l202.105264 118.568421c-16.168421 21.557895-24.252632 48.505263-16.168421 75.452632l-94.31579 53.894737c-32.336842-48.505263-88.926316-83.536842-150.905263-88.926316v-107.789474c26.947368-5.389474 51.2-26.947368 59.28421-51.2zM512 679.073684c-91.621053 0-167.073684-75.452632-167.073684-167.073684 0-91.621053 75.452632-167.073684 167.073684-167.073684s167.073684 75.452632 167.073684 167.073684c2.694737 91.621053-72.757895 167.073684-167.073684 167.073684zM794.947368 646.736842L700.631579 592.842105c10.778947-26.947368 18.863158-53.894737 18.863158-83.536842s-5.389474-56.589474-16.168421-80.842105l94.315789-53.894737c10.778947 10.778947 24.252632 18.863158 37.726316 24.252632h5.389474V619.789474H835.368421c-16.168421 8.084211-29.642105 16.168421-40.421053 26.947368z m75.452632-369.178947c10.778947 2.694737 21.557895 10.778947 26.947368 21.557894 13.473684 21.557895 5.389474 48.505263-18.863157 61.978948-10.778947 5.389474-24.252632 8.084211-35.031579 5.389474-10.778947-2.694737-21.557895-10.778947-26.947369-21.557895-13.473684-21.557895-5.389474-48.505263 18.863158-61.978948 8.084211-2.694737 13.473684-5.389474 21.557895-5.389473 5.389474-2.694737 8.084211-2.694737 13.473684 0zM512 72.757895c24.252632 0 45.810526 21.557895 45.810526 45.810526S538.947368 164.378947 512 164.378947c-24.252632 0-45.810526-21.557895-45.810526-45.810526s21.557895-45.810526 45.810526-45.810526zM129.347368 299.115789c8.084211-16.168421 24.252632-24.252632 40.421053-24.252631 8.084211 0 16.168421 2.694737 21.557895 5.389474 10.778947 5.389474 18.863158 16.168421 21.557895 26.947368 2.694737 13.473684 2.694737 24.252632-2.694737 35.031579s-16.168421 18.863158-26.947369 21.557895-24.252632 2.694737-35.031579-5.389474c-21.557895-10.778947-29.642105-37.726316-18.863158-59.284211z m0 425.768422c-5.389474-10.778947-8.084211-21.557895-2.694736-35.031579 2.694737-10.778947 10.778947-21.557895 21.557894-26.947369 8.084211-2.694737 13.473684-5.389474 21.557895-5.389474 5.389474 0 8.084211 0 13.473684 2.694737 10.778947 2.694737 21.557895 10.778947 26.947369 21.557895s8.084211 21.557895 2.694737 35.031579c-2.694737 10.778947-10.778947 21.557895-21.557895 26.947368-21.557895 10.778947-48.505263 5.389474-61.978948-18.863157zM512 951.242105c-24.252632 0-45.810526-21.557895-45.810526-45.810526s21.557895-45.810526 45.810526-45.810526c24.252632 0 45.810526 21.557895 45.810526 45.810526s-18.863158 45.810526-45.810526 45.810526z m385.347368-226.357894c-5.389474 10.778947-16.168421 18.863158-26.947368 21.557894-10.778947 2.694737-24.252632 2.694737-35.031579-5.389473-10.778947-5.389474-18.863158-16.168421-21.557895-26.947369s-2.694737-24.252632 2.694737-35.031579 16.168421-18.863158 26.947369-21.557895c5.389474 0 8.084211-2.694737 13.473684-2.694736 8.084211 0 16.168421 2.694737 21.557895 5.389473 21.557895 16.168421 29.642105 43.115789 18.863157 64.673685z" fill="#cdcdcd" p-id="4068"></path></svg>