<?xml version="1.0" standalone="no"?><!DOCTYPE svg PUBLIC "-//W3C//DTD SVG 1.1//EN" "http://www.w3.org/Graphics/SVG/1.1/DTD/svg11.dtd"><svg t="1724317365800" class="icon" viewBox="0 0 1024 1024" version="1.1" xmlns="http://www.w3.org/2000/svg" p-id="5277" xmlns:xlink="http://www.w3.org/1999/xlink" width="16" height="16"><path d="M512 1024a518.857 518.857 0 0 1-84.992-7.016 504.111 504.111 0 0 1-149.39-49.114l-46.27-23.742 2.769-2.01A513.252 513.252 0 0 1 2.73 565.134l-0.152-1.479A521.678 521.678 0 0 1 0 512C0 229.68 229.68 0 512 0s512 229.68 512 512-229.68 512-512 512z m-74.638-70.087a446.578 446.578 0 0 0 71.11 5.689C753.4 959.602 952.7 760.3 952.7 515.3c0-41.795-5.689-82.679-17.066-122.122-1.138 4.172-2.466 8.344-4.096 12.364-11.682 29.09-35.916 39.14-57.269 48.014-6.712 2.769-14.146 5.84-22.186 9.86a223.004 223.004 0 0 0-8.837 4.628 97.09 97.09 0 0 1-1.403 8.723l1.251 1.593c3.945 5.082 9.861 12.819 14.791 24.12 11.871 27.08 11.871 34.286 11.871 74.26 0 35.195-15.36 52.717-24.576 63.184-1.403 1.631-2.882 3.034-3.906 4.74a130.313 130.313 0 0 1-28.634 73.008c-7.016 9.065-13.312 14.678-18.887 19.722-8.837 7.888-16.46 14.715-30.644 41.832-23.552 45.018-43.995 83.589-92.691 79.341-47.484-4.4-45.398-57.306-44.64-77.255 0.19-5.613 0.532-14.108 0-16.877l-3.185-13.464c-5.044-20.935-11.34-47.028-11.34-68.987 0-14.336 0-58.027-7.433-71.415-9.671-17.445-11.492-36.864-12.857-51.01-0.417-4.779-0.57-9.178-1.555-12.515-4.817-7.396-8.799-14.033-23.438-23.856-4.172-2.768-8.723-6.068-13.54-9.595-16.005-11.681-35.84-26.169-53.362-26.169-46.27 0-71.907-20.215-104.41-45.739-22.452-17.635-27.686-38.343-28.103-52.565-1.062-35.575 26.245-63.791 38.04-74.259 8.76-7.775 15.929-13.615 21.883-18.432 5.879-4.779 10.999-8.913 12.743-11.226 7.016-9.406 18.129-16.536 30.265-23.742-7.016-9.481-15.019-20.859-20.518-34.02-1.441-3.413-13.198-9.67-28.065-9.67-7.585 0-11.757 1.593-12.819 2.086-16.422 7.471-18.887 20.328-18.887 27.306 0 33.754-12.212 50.176-30.834 71.415-1.024 1.896-2.086 10.05-2.769 14.943-2.161 16.118-6.144 46.08-36.295 56.13a53.02 53.02 0 0 1-16.839 2.92c-23.4 0-34.133-16.725-38.305-23.476a55.524 55.524 0 0 1-31.023-22.945c-24.5 31.1-74.146 34.664-95.725 36.181l-4.893 0.19c-17.673 0-32.389-7.282-41.225-19.987a436.224 436.224 0 0 0-26.397 127.62c10.544-5.688 22.794-7.964 39.898-6.333 38.154 3.717 68.798 31.175 91.174 51.2 7.206 6.447 17.067 15.284 20.86 17.067 2.844 1.137 7.357 2.351 12.515 3.83 28.445 8.154 71.377 20.48 85.713 56.13 5.31 13.237 8.343 34.551-7.168 61.213-32.996 56.548-59.923 93.98-80.062 111.199-2.238 3.11-5.196 18.811-2.769 40.808 3.262 11.454 36.333 57.913 68.76 78.203l8.496 4.627a444.378 444.378 0 0 0 135.016 45.815h0.038zM70.959 590.658a449.08 449.08 0 0 0 90.264 199.984c2.314-20.215 9.026-41.074 24.955-54.727 5.234-4.438 25.41-24.425 66.409-94.815a18.015 18.015 0 0 0 2.844-6.637c-4.286-5.765-33.982-14.298-43.728-17.105a215.42 215.42 0 0 1-18.85-5.992c-13.615-5.461-25.638-16.232-39.556-28.71-16.498-14.791-37.054-33.185-54.197-35.157-1.744 9.405-4.74 24.765-18.052 35.84a88.178 88.178 0 0 1-10.089 7.32z m349.905-436.83c30.796 0 72.06 12.856 87.116 49 3.186 7.66 9.785 16.422 15.55 24.12 9.86 13.199 36.067 48.129 4.74 72.819a218.074 218.074 0 0 1-21.997 14.184c-5.423 3.224-14.525 8.571-16.99 10.922-5.386 7.32-12.971 13.464-22.567 21.239-5.31 4.286-11.757 9.52-19.607 16.498-11.568 10.24-16.764 20.707-16.65 24.576 0.038 0.796 1.555 2.54 3.717 4.247 30.985 24.311 41.908 32.048 64.891 32.048 38.381 0 68.836 22.224 91.098 38.457 4.058 2.996 7.813 5.765 11.34 8.116 26.548 17.75 36.22 33.83 43.994 46.687 6.751 11.302 7.965 24.272 9.14 36.788 0.91 9.481 1.935 20.29 5.12 25.98 14.298 25.713 15.474 66.37 15.474 102.475 0 14.412 5.31 36.371 9.558 54.044l3.413 14.526c2.01 9.102 1.972 18.85 1.63 28.52 6.448-10.088 12.933-22.452 16.612-29.506 19.532-37.281 33.375-49.72 44.563-59.733 3.641-3.3 7.206-6.372 11.15-11.378 11.34-14.602 14.488-26.548 16.309-43.425 2.085-18.356 12.022-29.734 18.583-37.206 6.372-7.243 8.723-9.936 8.723-21.086 0-33.83 0-33.83-6.447-48.66a47.56 47.56 0 0 0-6.903-10.695c-7.244-9.443-19.456-25.22-13.388-52.792 0.683-3.148 0.873-5.462 1.024-7.434 2.617-28.52 18.129-38.23 43.388-50.896 9.52-4.78 18.318-8.42 26.282-11.758 16.119-6.637 20.973-9.14 22.453-12.743 3.64-9.102 4.816-22.376 5.802-34.057 0.986-10.999 1.896-21.352 4.968-30.53 2.276-7.168 6.524-20.253 17.067-29.014C822.462 154.207 677.585 63.905 512 63.905c-150.035 0-283.041 74.107-364.392 187.62 8.04 5.689 13.577 14.412 16.422 22.262 5.233 14.336 3.185 29.393-5.12 41.757 21.92-3.945 24.007-9.216 24.196-10.506 1.176-8.723 1.517-15.322 1.82-20.48 0.76-15.17 1.973-38.04 31.48-50.745 22.072-9.443 46.497-4.172 59.922 12.592 9.861 12.25 13.085 28.823 9.103 46.649a35.157 35.157 0 0 0 0 15.55c3.034 0.872 5.992 1.971 8.798 3.337 2.238-11.492 6.334-24.349 15.967-35.423 14.526-16.574 15.019-18.356 15.019-29.317 0-37.016 21.618-69.784 56.396-85.523a95.573 95.573 0 0 1 39.253-7.85z" p-id="5278"></path></svg>