<?xml version="1.0" standalone="no"?><!DOCTYPE svg PUBLIC "-//W3C//DTD SVG 1.1//EN" "http://www.w3.org/Graphics/SVG/1.1/DTD/svg11.dtd"><svg t="1680847939925" class="icon" viewBox="0 0 1024 1024" version="1.1" xmlns="http://www.w3.org/2000/svg" p-id="3326" xmlns:xlink="http://www.w3.org/1999/xlink" width="128" height="128"><path d="M512 64c249.6 0 448 198.4 448 448s-198.4 448-448 448-448-198.4-448-448 198.4-448 448-448m0-64C230.4 0 0 230.4 0 512s230.4 512 512 512 512-230.4 512-512-230.4-512-512-512z" fill="#ffffff" p-id="3327"></path><path d="M576 576H512V512h64c70.4 0 128-57.6 128-128V320H448c-70.4 0-128 57.6-128 128v128H256V448c0-108.8 83.2-192 192-192h320v128c0 108.8-83.2 192-192 192z" fill="#ffffff" p-id="3328"></path><path d="M384 768H320c0-153.6 57.6-294.4 166.4-409.6l44.8 44.8C435.2 505.6 384 633.6 384 768z" fill="#ffffff" p-id="3329"></path></svg>