<?xml version="1.0" standalone="no"?><!DOCTYPE svg PUBLIC "-//W3C//DTD SVG 1.1//EN" "http://www.w3.org/Graphics/SVG/1.1/DTD/svg11.dtd"><svg t="1646200748036" class="icon" viewBox="0 0 1024 1024" version="1.1" xmlns="http://www.w3.org/2000/svg" p-id="2233" xmlns:xlink="http://www.w3.org/1999/xlink" width="64" height="64"><defs><style type="text/css"></style></defs><path d="M1024 1024H0V0h1024v1024zM68.224 955.776h887.488V68.224H68.224v887.552z" p-id="2234"></path><path d="M317.568 257.984h470.656v46.336H368.32v132.672c0 83.904-6.272 147.84-18.688 191.936-12.032 44.8-36.224 90.56-72.768 137.216a330.752 330.752 0 0 0-41.216-35.584c33.536-41.088 55.488-80.576 65.984-118.592 10.624-35.84 15.872-90.688 15.872-164.864v-189.12z" p-id="2235"></path><path d="M277.632 784.512l-9.536-10.368a316.8 316.8 0 0 0-39.616-34.112l-9.92-7.424 7.872-9.536c32.256-39.552 53.696-78.016 63.68-114.24 10.304-34.624 15.488-88.96 15.488-161.664V246.016h494.656v70.208H380.288v120.704c0 84.416-6.464 150.08-19.136 195.2-12.416 46.144-37.568 93.76-74.816 141.184l-8.704 11.2z m-25.024-56c9.088 7.104 16.768 13.632 23.04 19.456 30.784-41.344 51.776-82.368 62.4-122.112 12.16-43.136 18.304-106.624 18.304-188.864v-144.64h419.904v-22.4h-446.72v177.152c0 76.032-5.376 131.008-16.384 168.192-10.048 36.352-30.4 74.368-60.544 113.216z" p-id="2236"></path></svg>