<?xml version="1.0" standalone="no"?><!DOCTYPE svg PUBLIC "-//W3C//DTD SVG 1.1//EN" "http://www.w3.org/Graphics/SVG/1.1/DTD/svg11.dtd"><svg t="1646201995839" class="icon" viewBox="0 0 1024 1024" version="1.1" xmlns="http://www.w3.org/2000/svg" p-id="3181" xmlns:xlink="http://www.w3.org/1999/xlink" width="64" height="64"><defs><style type="text/css"></style></defs><path d="M160 0h704a128 128 0 0 1 128 128v768a128 128 0 0 1-128 128H160a128 128 0 0 1-128-128V128a128 128 0 0 1 128-128z m231.808 243.84v279.68c-1.28 124.16-46.72 214.4-136.32 270.72l45.44 39.68c98.56-65.28 149.12-168.32 151.68-310.4V243.84h-60.8z m-133.12 60.8v314.88h60.8V304.64h-60.8z m225.28-16v59.52h254.72v154.88h-238.08v58.24h238.08v164.48h-266.88v59.52h266.88v33.28h61.44V288.64h-316.16z" fill="#8a8a8a" p-id="3182"></path></svg>