<?xml version="1.0" standalone="no"?><!DOCTYPE svg PUBLIC "-//W3C//DTD SVG 1.1//EN" "http://www.w3.org/Graphics/SVG/1.1/DTD/svg11.dtd"><svg t="1648890416486" class="icon" viewBox="0 0 1024 1024" version="1.1" xmlns="http://www.w3.org/2000/svg" p-id="2968" xmlns:xlink="http://www.w3.org/1999/xlink" width="64" height="64"><defs><style type="text/css">@font-face { font-family: feedback-iconfont; src: url("//at.alicdn.com/t/font_1031158_u69w8yhxdu.woff2?t=1630033759944") format("woff2"), url("//at.alicdn.com/t/font_1031158_u69w8yhxdu.woff?t=1630033759944") format("woff"), url("//at.alicdn.com/t/font_1031158_u69w8yhxdu.ttf?t=1630033759944") format("truetype"); }
</style></defs><path d="M997.614933 174.472533L903.765333 135.68c-69.12-28.586667-151.5008-10.564267-207.445333 45.380267l-98.747733 98.747733a33.518933 33.518933 0 0 1-19.387734 9.540267L130.884267 347.101867a100.522667 100.522667 0 0 0-58.180267 28.603733L14.779733 433.629867c-29.218133 29.218133-12.629333 79.274667 28.2624 85.248l209.2032 30.5664c27.255467 3.976533 38.331733 37.341867 18.8416 56.832l-70.877866 70.877866a33.501867 33.501867 0 0 1-22.050134 9.7792l-73.8304 3.601067a67.345067 67.345067 0 0 0-44.373333 19.6608l-13.056 13.056c-36.846933 36.846933-19.746133 99.771733 30.685867 112.896l244.923733 63.761067a50.551467 50.551467 0 0 0 49.2544-12.970667l127.726933-127.726933 509.815467-509.815467c23.842133-23.876267 17.783467-62.737067-11.690667-74.922667z" fill="#bfbfbf" p-id="2969"></path></svg>