<?xml version="1.0" standalone="no"?><!DOCTYPE svg PUBLIC "-//W3C//DTD SVG 1.1//EN" "http://www.w3.org/Graphics/SVG/1.1/DTD/svg11.dtd"><svg t="1724324613571" class="icon" viewBox="0 0 1024 1024" version="1.1" xmlns="http://www.w3.org/2000/svg" p-id="10492" xmlns:xlink="http://www.w3.org/1999/xlink" width="32" height="32"><path d="M512 0C228.8 0 0 228.8 0 512s228.8 512 512 512 512-228.8 512-512S795.2 0 512 0z m0 960C265.6 960 64 758.4 64 512S265.6 64 512 64s448 201.6 448 448-201.6 448-448 448z" p-id="10493"></path><path d="M368 512c0 80 64 144 144 144s144-64 144-144-64-144-144-144-144 64-144 144zM480 48h64v144h-64z m352 432h144v64H832z m-784 0h144v64H48z m432 352h64v144h-64z" p-id="10494"></path></svg>