<?xml version="1.0" standalone="no"?><!DOCTYPE svg PUBLIC "-//W3C//DTD SVG 1.1//EN" "http://www.w3.org/Graphics/SVG/1.1/DTD/svg11.dtd"><svg t="1668754733435" class="icon" viewBox="0 0 1024 1024" version="1.1" xmlns="http://www.w3.org/2000/svg" p-id="3180" xmlns:xlink="http://www.w3.org/1999/xlink" width="64" height="64"><path d="M1024 494.933333v-6.826666c0-6.826667-3.413333-10.24-10.24-13.653334-30.72-17.066667-81.92-71.68-146.773333-139.946666-34.133333-37.546667-75.093333-78.506667-119.466667-122.88-136.533333-136.533333-290.133333-187.733333-334.506667-197.973334h-6.826666C320.853333 30.72 238.933333 71.68 174.08 129.706667c-6.826667 3.413333-6.826667 10.24-6.826667 17.066666 3.413333 6.826667 6.826667 10.24 13.653334 10.24 129.706667 23.893333 341.333333 126.293333 423.253333 194.56 88.746667 75.093333 310.613333 197.973333 395.946667 221.866667h3.413333c3.413333 0 6.826667 0 10.24-3.413333s6.826667-6.826667 6.826667-13.653334c0-17.066667 3.413333-34.133333 3.413333-47.786666v-13.653334z" fill="" p-id="3181"></path><path d="M1006.933333 505.173333c-3.413333 0-6.826667 0-6.826666-3.413333-34.133333-17.066667-85.333333-71.68-157.013334-146.773333-34.133333-37.546667-75.093333-78.506667-119.466666-122.88C590.506667 102.4 443.733333 54.613333 402.773333 44.373333c-6.826667-3.413333-13.653333-10.24-13.653333-17.066666s6.826667-13.653333 13.653333-17.066667C440.32 3.413333 477.866667 0 512 0c273.066667 0 498.346667 215.04 512 488.106667 0 6.826667-3.413333 10.24-6.826667 13.653333-3.413333 3.413333-6.826667 3.413333-10.24 3.413333zM481.28 34.133333c68.266667 27.306667 170.666667 81.92 266.24 174.08 44.373333 44.373333 85.333333 85.333333 119.466667 122.88 47.786667 51.2 88.746667 95.573333 119.466666 119.466667C955.733333 204.8 737.28 17.066667 481.28 34.133333zM764.586667 921.6c-119.466667-3.413333-232.106667-27.306667-317.44-47.786667-51.2-10.24-85.333333-20.48-109.226667-20.48-30.72 0-88.746667 10.24-126.293333 47.786667-3.413333 3.413333-6.826667 10.24-6.826667 13.653333s3.413333 10.24 6.826667 13.653334C300.373333 989.866667 402.773333 1024 512 1024c92.16 0 180.906667-23.893333 259.413333-71.68 6.826667-3.413333 10.24-10.24 6.826667-20.48 0-6.826667-6.826667-10.24-13.653333-10.24zM969.386667 716.8h-98.986667c-44.373333 0-116.053333 0-399.36-157.013333C293.546667 464.213333 174.08 443.733333 105.813333 443.733333c-30.72 0-58.026667 3.413333-78.506666 10.24-6.826667 3.413333-10.24 0-17.066667-3.413333-3.413333-3.413333-6.826667-10.24-6.826667-17.066667C20.48 314.026667 81.92 204.8 170.666667 126.293333c3.413333-3.413333 10.24-3.413333 13.653333-3.413333 126.293333 23.893333 344.746667 122.88 436.906667 204.8 92.16 75.093333 310.613333 194.56 382.293333 215.04 6.826667 3.413333 13.653333 10.24 13.653333 17.066667-3.413333 51.2-17.066667 98.986667-37.546666 143.36 3.413333 10.24-3.413333 13.653333-10.24 13.653333zM105.813333 409.6c102.4 0 232.106667 40.96 378.88 119.466667C764.586667 682.666667 832.853333 682.666667 870.4 682.666667h88.746667c13.653333-34.133333 23.893333-71.68 27.306666-109.226667-92.16-30.72-296.96-146.773333-382.293333-218.453333-78.506667-68.266667-283.306667-167.253333-413.013333-194.56-75.093333 68.266667-126.293333 157.013333-146.773334 256 20.48-3.413333 40.96-6.826667 61.44-6.826667z" fill="" p-id="3182"></path><path d="M983.04 689.493333c-3.413333-3.413333-6.826667-6.826667-13.653333-6.826666h-98.986667c-37.546667 0-105.813333 0-385.706667-150.186667C341.333333 450.56 211.626667 409.6 105.813333 409.6c-34.133333 0-64.853333 3.413333-88.746666 13.653333-6.826667 3.413333-10.24 6.826667-10.24 13.653334-3.413333 27.306667-6.826667 51.2-6.826667 75.093333 0 34.133333 3.413333 71.68 10.24 109.226667 0 3.413333 3.413333 10.24 6.826667 10.24 3.413333 3.413333 10.24 3.413333 13.653333 3.413333 10.24-3.413333 23.893333-3.413333 40.96-3.413333 85.333333 0 225.28 37.546667 327.68 85.333333 150.186667 71.68 259.413333 102.4 351.573333 102.4 61.44 0 126.293333-6.826667 174.08-13.653333 3.413333 0 10.24-3.413333 13.653334-6.826667 20.48-27.306667 37.546667-61.44 51.2-92.16-3.413333-6.826667-3.413333-10.24-6.826667-17.066667z" fill="" p-id="3183"></path><path d="M761.173333 955.733333c-122.88-3.413333-238.933333-30.72-324.266666-47.786666-47.786667-10.24-81.92-20.48-102.4-20.48-23.893333 0-71.68 6.826667-102.4 37.546666-6.826667 6.826667-13.653333 6.826667-23.893334 3.413334-102.4-75.093333-174.08-184.32-201.386666-307.2-3.413333-10.24 3.413333-17.066667 13.653333-20.48 13.653333-3.413333 30.72-6.826667 51.2-6.826667 88.746667 0 235.52 37.546667 341.333333 88.746667 143.36 68.266667 245.76 102.4 334.506667 102.4 61.44 0 133.12-6.826667 167.253333-13.653334 6.826667 0 13.653333 3.413333 17.066667 6.826667 3.413333 3.413333 3.413333 13.653333 0 17.066667-40.96 61.44-98.986667 116.053333-163.84 153.6 0 6.826667-3.413333 6.826667-6.826667 6.826666zM337.92 853.333333c23.893333 0 58.026667 6.826667 109.226667 20.48 81.92 17.066667 194.56 44.373333 310.613333 47.786667 47.786667-30.72 92.16-68.266667 126.293333-109.226667-40.96 3.413333-88.746667 6.826667-133.12 6.826667-92.16 0-201.386667-30.72-348.16-105.813333-102.4-47.786667-242.346667-85.333333-327.68-85.333334h-27.306666c27.306667 102.4 88.746667 194.56 174.08 259.413334 37.546667-27.306667 88.746667-34.133333 116.053333-34.133334z" fill="" p-id="3184"></path></svg>