<?xml version="1.0" standalone="no"?><!DOCTYPE svg PUBLIC "-//W3C//DTD SVG 1.1//EN" "http://www.w3.org/Graphics/SVG/1.1/DTD/svg11.dtd"><svg t="1646884752486" class="icon" viewBox="0 0 1024 1024" version="1.1" xmlns="http://www.w3.org/2000/svg" p-id="2286" xmlns:xlink="http://www.w3.org/1999/xlink" width="64" height="64"><defs><style type="text/css"></style></defs><path d="M75.02472093 537.6926075v-109.4645775l428.31757406 236.67438844a20.99229094 20.99229094 0 0 0 19.776315 0l436.18801219-252.22819313v107.90117906L570.14080781 745.75815031a120.56871094 120.56871094 0 0 1-116.07895313 1.48322438z m0 204.44433937v-109.51802624l428.31757406 236.7545625a20.99229094 20.99229094 0 0 0 19.776315 0l436.18801219-252.24155532v107.90117907L570.14080781 950.21585281a120.55534875 120.55534875 0 0 1-116.07895313 1.40304938z m0-427.30203281v-29.85154593a47.12909719 47.12909719 0 0 1 20.57805844-25.80274688l345.1902375-210.32378437a115.42419656 115.42419656 0 0 1 117.05440594-1.80392063l372.59646843 211.28587594c32.149875 18.2129175 32.149875 64.74070781 0 83.03379937L557.83406062 552.71191719a115.43755875 115.43755875 0 0 1-117.05440688-1.79055844L95.68295343 340.66438531a47.14245938 47.14245938 0 0 1-20.5780575-25.80274594z m0 0" fill="#d81e06" p-id="2287"></path></svg>