<?xml version="1.0" standalone="no"?><!DOCTYPE svg PUBLIC "-//W3C//DTD SVG 1.1//EN" "http://www.w3.org/Graphics/SVG/1.1/DTD/svg11.dtd"><svg t="1647845541911" class="icon" viewBox="0 0 1024 1024" version="1.1" xmlns="http://www.w3.org/2000/svg" p-id="4152" xmlns:xlink="http://www.w3.org/1999/xlink" width="64" height="64"><defs><style type="text/css"></style></defs><path d="M939.8272 973.1072h-839.68c-22.6304 0-40.96-18.3296-40.96-40.96v-839.68c0-22.6304 18.3296-40.96 40.96-40.96h839.68c22.6304 0 40.96 18.3296 40.96 40.96v839.68c0 22.528-18.432 40.96-40.96 40.96z m10.24-51.2v-819.2c0-11.264-9.216-20.48-20.48-20.48h-819.2c-11.264 0-20.48 9.216-20.48 20.48v819.2c0 11.264 9.216 20.48 20.48 20.48h819.2c11.264 0 20.48-9.216 20.48-20.48z" p-id="4153"></path><path d="M371.9168 498.688H230.5024c-9.728 0-17.7152-7.8848-17.7152-17.6128l26.5216-299.3152c0-9.728 7.9872-17.6128 17.7152-17.6128h141.4144c9.728 0 17.7152 7.8848 17.7152 17.6128l-26.5216 299.3152c0 9.6256-7.9872 17.6128-17.7152 17.6128zM577.4336 498.688H436.0192c-9.728 0-17.7152-7.8848-17.7152-17.6128l26.5216-299.3152c0-9.728 7.9872-17.6128 17.7152-17.6128h141.4144c9.728 0 17.7152 7.8848 17.7152 17.6128l-26.5216 299.3152c0 9.6256-7.9872 17.6128-17.7152 17.6128zM782.9504 498.688H641.536c-9.728 0-17.7152-7.8848-17.7152-17.6128l26.5216-299.3152c0-9.728 7.9872-17.6128 17.7152-17.6128h141.4144c9.728 0 17.7152 7.8848 17.7152 17.6128l-26.5216 299.3152c0 9.6256-7.9872 17.6128-17.7152 17.6128zM371.9168 860.4672H230.5024c-9.728 0-17.7152-7.8848-17.7152-17.6128l26.5216-299.3152c0-9.728 7.9872-17.6128 17.7152-17.6128h141.4144c9.728 0 17.7152 7.8848 17.7152 17.6128l-26.5216 299.3152c0 9.728-7.9872 17.6128-17.7152 17.6128zM577.4336 860.4672H436.0192c-9.728 0-17.7152-7.8848-17.7152-17.6128l26.5216-299.3152c0-9.728 7.9872-17.6128 17.7152-17.6128h141.4144c9.728 0 17.7152 7.8848 17.7152 17.6128l-26.5216 299.3152c0 9.728-7.9872 17.6128-17.7152 17.6128zM782.9504 860.4672H641.536c-9.728 0-17.7152-7.8848-17.7152-17.6128l26.5216-299.3152c0-9.728 7.9872-17.6128 17.7152-17.6128h141.4144c9.728 0 17.7152 7.8848 17.7152 17.6128l-26.5216 299.3152c0 9.728-7.9872 17.6128-17.7152 17.6128z" p-id="4154"></path></svg>