<?xml version="1.0" standalone="no"?><!DOCTYPE svg PUBLIC "-//W3C//DTD SVG 1.1//EN" "http://www.w3.org/Graphics/SVG/1.1/DTD/svg11.dtd"><svg t="1642742816989" class="icon" viewBox="0 0 1025 1024" version="1.1" xmlns="http://www.w3.org/2000/svg" p-id="4560" xmlns:xlink="http://www.w3.org/1999/xlink" width="64.0625" height="64"><defs><style type="text/css"></style></defs><path d="M511.78656 1023.999787a511.72256 511.72256 0 1 1 199.253292-40.234659A511.999893 511.999893 0 0 1 511.78656 1023.999787z m0-948.821136a436.949242 436.949242 0 1 0 436.949242 436.949242A437.461242 437.461242 0 0 0 511.78656 75.178651z" fill="#2c2c2c" p-id="4561"></path><path d="M511.72256 133.823972a378.282588 378.282588 0 1 0 378.346588 378.239921 378.282588 378.282588 0 0 0-378.346588-378.239921z m224.36262 636.543868h-142.037304v-209.834623h-164.629299v209.834623h-142.037304V253.930614h142.037304v183.957295h164.629299v-183.957295h142.037304z" fill="#2c2c2c" p-id="4562"></path></svg>