<?xml version="1.0" standalone="no"?><!DOCTYPE svg PUBLIC "-//W3C//DTD SVG 1.1//EN" "http://www.w3.org/Graphics/SVG/1.1/DTD/svg11.dtd"><svg t="1680847980612" class="icon" viewBox="0 0 1024 1024" version="1.1" xmlns="http://www.w3.org/2000/svg" p-id="4099" xmlns:xlink="http://www.w3.org/1999/xlink" width="128" height="128"><path d="M506.797249 1016.057502c-119.275844 0-217.629985-36.75135-294.176849-111.305672C136.10121 830.225184 97.357316 735.80078 97.357316 621.533968c0-46.714066 12.923856-103.363173 25.820038-142.13474 6.973901-18.873811 13.920127-38.743894 21.862626-57.645379 16.881268-39.740165 23.855169-50.671478 28.836526-58.641651 6.946227-12.896182 16.881268-17.877539 30.801395-15.884996 12.923856 0.996272 23.855169 10.931313 26.843984 22.858897 12.896182 48.706609 27.812581 86.454231 45.717794 115.290758 16.881268 26.843983 35.755079 47.682663 55.625162 60.606519-18.873811-81.500548-21.862626-160.01228-6.918553-236.53147 16.881268-91.435589 63.595334-172.908462 104.331771-213.644899 20.866354-20.894028 42.72898-39.767839 66.584148-55.68051C545.568816 8.356504 561.453813 5.340016 574.377669 1.382604c10.931313-2.988815 21.862626-0.996272 30.801395 6.946226 8.966444 7.942498 11.927584 17.905214 8.966444 29.832798-0.996272 10.931313-3.985086 19.870083-6.973901 71.537832a928.663455 928.663455 0 0 0 0 74.526647c3.985086 48.706609 17.877539 120.272115 42.72898 175.924951 6.973901 11.89991 13.920127 27.840255 24.85144 44.721523 2.988815-24.85144 6.973901-46.714066 12.923856-66.584149 14.916399-52.691695 42.72898-90.439317 84.489362-114.294486l7.942498-3.985086c20.866354-10.931313 49.702881 8.966444 43.725252 34.786482 0 1.992543-10.931313 61.630465 41.732708 146.119827 22.858897 37.747622 37.775296 72.506429 45.717794 103.335499 8.93877 30.801395 12.923856 69.572963 12.923856 117.2833 0 228.588972-174.901005 394.523533-417.410104 394.523534zM196.735403 464.510503c-23.855169 59.610248-35.782753 111.305671-35.782753 156.027194 0 96.389272 32.793938 175.897277 97.413218 238.524013 64.563931 62.599062 148.057022 93.400458 248.431381 93.400458 102.394576 0 186.856264-30.801395 253.440412-93.400458 66.584149-62.626737 100.374359-142.134741 100.374358-238.551687 0-84.461688-9.962715-119.24817-49.70288-186.800916-22.858897-38.771568-38.743894-76.546864-45.717795-115.290757a144.95751 144.95751 0 0 0-16.881267 37.747622c-4.981358 19.870083-8.93877 42.72898-11.927585 68.576691-4.981358 50.671478-2.988815 69.572963-1.992543 78.511733 0 14.916399-6.946227 27.840255-21.862626 32.793939-13.920127 2.988815-26.843983 0-35.782753-11.927585-39.767839-56.649107-67.58042-102.366902-84.461688-137.153383C553.511315 302.533353 537.626318 201.135049 546.565088 83.851748c-30.82907 18.901485-56.649107 40.764111-88.474448 77.515462-31.797667 36.779025-57.617705 95.420675-69.545289 160.01228-8.966444 50.699152-7.970172 111.305671-2.988815 154.034651 4.981358 40.764111 16.881268 85.485634 20.866354 101.37063 4.981358 15.912671 7.942498 17.905214 7.942498 24.851441 0 7.970172-1.964869 14.944073-7.942498 23.855168-8.93877 8.93877-18.873811 12.923856-30.801395 9.962716-5.977629-1.023946-92.43186-23.882843-152.069783-116.287029a400.169072 400.169072 0 0 1-26.843983-54.684239z" fill="#ffffff" p-id="4100"></path><path d="M645.140623 636.561064v91.407915L456.651581 805.816531v-91.435589L645.140623 636.561064z" fill="#ffffff" p-id="4101"></path></svg>