<?xml version="1.0" standalone="no"?><!DOCTYPE svg PUBLIC "-//W3C//DTD SVG 1.1//EN" "http://www.w3.org/Graphics/SVG/1.1/DTD/svg11.dtd"><svg t="1646206245709" class="icon" viewBox="0 0 1024 1024" version="1.1" xmlns="http://www.w3.org/2000/svg" p-id="11068" xmlns:xlink="http://www.w3.org/1999/xlink" width="64" height="64"><defs><style type="text/css"></style></defs><path d="M528 304v607.168c-86.72 2.144-178.048-0.096-253.056-6.56-49.76-4.288-90.208-10.272-117.248-17.312l-2.848-0.768c26.72-23.552 101.152-52.48 202.752-64.448A48 48 0 0 0 400 774.4v-83.232c0-15.296-7.296-29.664-19.616-38.688-51.904-38.08-97.088-98.464-121.12-165.984a48.128 48.128 0 0 0-19.648-24.544c-8.928-5.6-19.552-23.968-29.952-59.456-3.936-13.408-1.28-19.328 9.312-25.92 12.896-8 21.248-21.664 22.496-36.832C253.6 193.472 336.544 112 466.24 112c95.136 0 162.976 43.648 197.12 125.504l88.608-36.96C702.656 82.336 599.52 16 466.24 16 291.904 16 171.168 128.224 148.064 310.432c-31.424 29.12-44.512 71.36-30.528 119.072 13.856 47.264 31.328 81.024 56.448 102.944 28.224 71.68 74.816 135.872 130.016 182.048v18.208c-151.488 25.024-256 84.224-256 171.072 0 65.6 68.928 83.584 218.688 96.512 77.92 6.72 171.84 9.056 261.312 6.944v0.768h448v-704h-448z m352 608h-256v-512h256v512z" p-id="11069" fill="#bfbfbf"></path><path d="M704 480h96v96h-96z" p-id="11070" fill="#bfbfbf"></path></svg>