<svg t="1645684671840" class="icon" viewBox="0 0 1024 1024" version="1.1" xmlns="http://www.w3.org/2000/svg" p-id="6994" width="64" height="64"><path d="M512 1019.2C232 1019.2 4.8 792 4.8 512S232 4.8 512 4.8 1019.2 232 1019.2 512 792 1019.2 512 1019.2z m0-918.4C284.8 100.8 100.8 284.8 100.8 512S284.8 923.2 512 923.2 923.2 739.2 923.2 512 739.2 100.8 512 100.8z" fill="#2c2c2c" p-id="6995"></path><path d="M761.6 336c-19.2-19.2-54.4-19.2-73.6 0L444.8 577.6l-107.2-107.2c-20.8-20.8-52.8-20.8-73.6 0s-20.8 52.8 0 73.6l144 144c9.6 9.6 24 16 36.8 16 6.4 0 12.8-1.6 19.2-3.2 6.4-3.2 14.4-6.4 19.2-12.8l278.4-278.4c20.8-20.8 20.8-54.4 0-73.6z" fill="#2c2c2c" p-id="6996"></path></svg>