<?xml version="1.0" standalone="no"?><!DOCTYPE svg PUBLIC "-//W3C//DTD SVG 1.1//EN" "http://www.w3.org/Graphics/SVG/1.1/DTD/svg11.dtd"><svg t="1663314892378" class="icon" viewBox="0 0 1024 1024" version="1.1" xmlns="http://www.w3.org/2000/svg" p-id="13064" xmlns:xlink="http://www.w3.org/1999/xlink" width="32" height="32"><path d="M56.064 1006.976c-2.048-0.896-4.8-2.304-6.144-3.136-2.432-1.536-8.96-8.448-8.96-9.472 0-0.32-0.512-1.344-1.152-2.24-0.64-0.96-1.664-3.456-2.24-5.632-1.024-3.52-1.088-14.336-1.088-130.176s0.064-126.656 1.088-130.176c0.576-2.176 1.6-4.672 2.24-5.632 0.64-0.896 1.152-1.92 1.152-2.304 0-0.32 1.728-2.432 3.776-4.736 2.88-3.136 5.12-4.8 8.832-6.656l4.992-2.496 32.512-0.192 32.448-0.192V604.288l-0.064-99.648-2.432-1.152c-3.52-1.6-10.944-7.424-14.4-11.264-1.088-1.216-2.496-2.624-3.072-3.2-0.64-0.512-1.152-1.344-1.152-1.728 0-0.448-0.256-0.896-0.576-1.024-1.152-0.448-4.672-6.784-7.936-14.144-2.24-4.992-3.84-13.952-3.904-21.568-0.064-14.272 4.672-27.648 13.888-38.912 6.4-7.872 14.336-13.568 25.536-18.304 4.544-1.92 14.528-3.584 21.312-3.584s16.768 1.664 21.312 3.584c15.424 6.528 26.368 16.384 33.28 30.08 9.536 18.816 7.488 44.672-4.992 62.336-5.12 7.296-14.08 15.104-20.608 18.048l-1.792 0.768v199.424h789.184l3.904 1.664c9.216 3.84 15.168 10.304 18.368 19.904l1.344 3.968v253.568l-1.344 3.968c-2.944 8.768-8.512 15.232-16.448 19.136l-4.288 2.112-454.4 0.128-454.4 0.128-3.776-1.6z m106.944-53.632c5.824-1.728 9.216-3.328 13.888-6.592 15.04-10.496 22.592-29.824 18.368-47.424-0.64-2.752-1.664-5.952-2.24-7.04s-1.024-2.304-1.024-2.688c0-2.432-8.64-12.736-14.976-17.792-4.992-3.968-18.816-8.448-26.176-8.448-8.832 0-19.776 3.776-27.456 9.408-3.648 2.752-9.472 8.896-11.072 11.776-5.312 9.536-7.36 16.512-7.36 24.96 0 19.904 13.504 37.76 33.216 43.776 7.04 2.176 17.664 2.176 24.832 0.064z m143.808 0.128c15.872-4.8 27.328-16 32.256-31.616 2.112-6.656 2.048-18.496-0.128-25.28-4.544-14.272-13.312-23.872-27.264-29.888-3.776-1.6-12.544-3.328-16.96-3.328-3.584 0-14.144 2.048-16.192 3.136-0.576 0.384-1.92 1.024-3.008 1.536-4.032 1.856-9.088 5.44-12.8 9.152-7.36 7.36-12.032 17.344-13.44 29.056-0.576 4.48 1.152 14.592 3.328 19.968 3.264 8.128 9.792 16.128 17.152 21.056 4.352 2.944 6.848 4.096 12.48 5.952 6.656 2.176 17.92 2.304 24.576 0.256z m142.208 0.128c11.84-3.52 21.312-10.688 27.584-20.8 1.472-2.304 4.672-9.408 4.672-10.304 0-0.448 0.448-2.496 0.96-4.544 1.792-6.912 0.576-19.776-2.432-25.6-0.64-1.152-1.088-2.368-1.088-2.688 0-0.384-0.704-1.728-1.6-3.072s-1.984-3.008-2.432-3.712c-0.704-1.216-8.768-9.28-10.944-11.072-4.928-3.968-18.816-8.448-26.176-8.448-4.672 0-14.016 2.048-18.624 4.096-12.416 5.632-22.016 16.896-25.984 30.656-1.216 4.288-1.344 6.08-1.152 12.48 0.384 9.6 2.368 15.68 7.808 24.384 2.24 3.584 9.792 10.944 12.8 12.544 1.28 0.704 2.304 1.472 2.304 1.728 0 0.32 0.448 0.512 0.96 0.512 0.576 0 1.664 0.448 2.496 0.96 0.768 0.512 3.712 1.664 6.528 2.496 6.848 2.112 17.856 2.304 24.32 0.384z m402.816-8c12.16-2.944 21.952-7.168 31.296-13.44 1.536-1.088 3.264-2.176 3.84-2.56 0.512-0.32 1.28-0.96 1.664-1.344 0.32-0.32 2.496-2.24 4.736-4.16 8.832-7.424 19.712-22.592 23.488-32.704 8.576-22.976 9.664-42.368 3.392-61.952-2.816-8.768-8.128-20.288-10.56-23.104-0.512-0.512-0.896-1.28-0.896-1.664s-0.192-0.832-0.448-0.96c-0.32-0.064-1.792-1.92-3.392-4.032-4.224-5.568-12.416-13.632-18.048-17.792-2.688-1.984-5.056-3.648-5.248-3.648s-1.28-0.64-2.432-1.408c-4.864-3.328-15.552-8-22.912-9.984-18.304-5.056-40.064-4.096-56.64 2.56-4.992 1.984-15.68 7.488-18.88 9.728-7.808 5.376-16.512 13.632-21.76 20.544-1.6 2.112-3.072 3.968-3.328 4.032-0.32 0.128-0.512 0.512-0.512 0.768 0 0.32-0.704 1.6-1.536 2.816s-2.688 4.736-4.16 7.872c-1.536 3.072-2.944 6.08-3.2 6.592-1.216 2.56-3.968 12.544-5.184 18.688-3.84 20.416 0.896 44.736 12.352 63.168 4.032 6.528 11.456 15.552 16.192 19.648 2.368 2.112 4.8 4.224 5.376 4.736s1.536 1.28 2.048 1.6c0.512 0.384 2.24 1.472 3.776 2.56 12.096 8.128 27.712 13.888 40.896 15.04 9.088 0.832 23.168 0.064 30.08-1.6z" p-id="13065" fill="#bfbfbf"></path><path d="M821.888 901.44c-15.68-3.136-28.736-14.848-34.432-30.976-2.752-7.68-2.688-23.424 0.128-29.952 2.88-6.784 3.712-8.384 5.248-10.752 1.984-2.944 4.8-6.272 7.36-8.576 3.136-2.816 9.088-7.104 9.92-7.104 0.448 0 1.472-0.448 2.24-0.96s3.456-1.536 5.888-2.368c3.84-1.28 5.824-1.472 13.76-1.472s9.92 0.192 13.76 1.472c2.432 0.832 5.12 1.856 5.888 2.368s1.728 0.96 2.112 0.96c1.344 0 10.176 6.784 12.736 9.856 0.896 0.96 1.856 2.112 2.24 2.56 2.048 2.112 4.8 7.168 7.68 14.08 1.6 3.712 2.496 12.096 1.984 19.136-0.64 9.088-3.456 16.832-8.64 23.808-3.776 4.992-9.856 10.432-14.4 12.864-3.328 1.728-3.968 2.112-6.336 3.072-6.336 2.752-18.752 3.648-27.136 1.984zM309.184 480.832c-1.152-2.048-2.304-4.16-2.624-4.672s-1.792-3.072-3.2-5.568c-1.472-2.56-2.88-4.8-3.264-4.992-1.28-0.832-0.384-1.984 2.752-3.52 6.4-3.072 12.864-7.872 19.008-14.08 3.392-3.392 6.464-6.656 6.784-7.104 4.416-6.08 6.784-10.304 10.624-18.816 2.752-6.144 4.992-18.304 5.056-27.264 0.064-31.296-19.712-59.84-49.28-70.848-10.176-3.776-13.056-4.288-26.24-4.288-11.136 0-13.056 0.192-17.6 1.472-8.512 2.496-12.032 3.904-21.504 8.896-0.96 0.448-2.048 1.28-2.496 1.792-1.728 2.112-3.456 1.152-5.696-3.008-3.072-5.824-7.488-13.312-8.32-14.144-1.152-1.152-0.832-2.624 0.768-3.648 4.096-2.624 16.576-8.96 17.728-8.96 0.32 0 1.856-0.576 3.328-1.216 7.744-3.392 21.632-5.824 33.792-5.824 8.96 0 21.632 1.664 26.944 3.52 1.472 0.512 3.072 0.96 3.584 0.96s2.112 0.576 3.52 1.28c1.472 0.704 2.944 1.28 3.264 1.28s3.392 1.408 6.784 3.136c13.248 6.592 24 15.104 32.832 25.856 11.392 14.016 17.728 27.584 21.376 45.888 1.664 8.384 1.728 27.264 0.064 35.52-1.728 8.64-5.184 19.456-8 24.96-0.512 1.088-1.216 2.432-1.536 3.136-7.424 14.656-19.776 28.416-34.112 37.888-4.288 2.816-10.432 6.016-11.584 6.016-0.448 0-1.664-1.664-2.752-3.648zM482.112 461.312c-0.96-1.536-1.792-2.88-3.264-5.376-0.768-1.408-1.728-2.944-2.048-3.456-2.112-3.264-8.32-13.568-8.32-13.824 0-0.192-0.64-1.216-1.408-2.368-4.288-6.336-4.032-5.696-2.688-6.72 0.64-0.448 2.368-1.472 3.776-2.112 2.624-1.28 3.2-1.6 7.68-4.416 3.52-2.112 11.84-8.256 13.504-9.856 0.768-0.768 3.328-3.264 5.76-5.568 5.312-5.056 9.92-10.368 13.056-14.848 1.216-1.856 2.368-3.456 2.624-3.648 0.32-0.32 2.496-3.776 4.224-6.72 1.28-2.24 7.232-14.272 7.232-14.656 0-0.192 0.512-1.6 1.216-3.136 2.88-6.528 5.76-17.984 6.848-27.328 2.304-19.328-0.384-41.152-6.912-57.28-1.344-3.2-6.976-14.848-8.384-17.28-5.952-10.112-11.136-16.704-19.904-25.152-2.432-2.368-4.992-4.864-5.76-5.632-2.496-2.432-11.648-8.896-17.344-12.224-2.24-1.28-14.272-7.232-14.656-7.232-0.192 0-1.6-0.512-3.136-1.216-10.496-4.608-27.328-7.68-42.368-7.744-23.808 0-48.256 7.552-67.328 20.864-2.176 1.536-4.288 2.816-4.672 2.816-0.32 0-1.088-0.96-1.664-2.048-0.576-1.152-1.28-2.24-1.472-2.432-0.384-0.256-5.632-8.832-6.464-10.56-0.192-0.32-1.408-2.304-2.688-4.352-1.344-1.984-2.432-3.84-2.432-4.032 0-0.128-0.64-1.216-1.408-2.368-3.008-4.416-3.712-5.504-3.712-5.824 0-0.448 8.896-6.144 15.296-9.792 7.872-4.48 17.344-8.576 28.224-12.352 3.264-1.088 16-4.16 23.04-5.568 8.896-1.728 42.24-1.728 51.2 0 34.944 6.784 61.824 20.608 85.184 43.904 5.632 5.632 15.04 16.704 17.536 20.608 0.384 0.576 1.472 2.304 2.56 3.84 1.024 1.536 2.24 3.392 2.624 4.096s1.28 2.304 2.048 3.52c1.408 2.368 7.232 14.016 9.088 18.24 3.84 8.576 7.296 20.608 10.048 34.88 1.664 8.896 1.664 42.304 0 51.2-3.648 18.816-7.04 29.056-14.656 44.48-2.944 5.952-3.776 7.552-6.72 12.416-1.216 1.92-5.888 8.896-6.784 9.984-0.256 0.384-2.112 2.752-4.096 5.312-1.984 2.496-3.84 4.608-4.16 4.608-0.256 0-0.512 0.32-0.512 0.704 0 1.664-14.528 15.104-25.28 23.488-5.248 4.032-20.16 12.928-21.696 12.928-0.192 0-0.512-0.384-0.832-0.768zM692.288 428.608c-3.776-6.144-3.776-6.144-7.616-12.16-2.048-3.136-3.712-5.824-3.712-5.952 0-0.192-0.512-1.088-1.216-2.048-2.624-3.84-6.656-10.176-8.896-13.952-0.768-1.408-2.048-3.52-2.752-4.736-0.896-1.472-1.088-2.304-0.64-2.432s1.6-0.96 2.56-1.792c1.024-0.832 2.048-1.536 2.24-1.536s0.896-0.384 1.472-0.896c0.64-0.512 3.584-2.88 6.592-5.248 4.352-3.456 21.696-20.288 25.216-24.576 2.496-3.008 8.704-11.648 8.704-12.096 0-0.32 0.256-0.704 0.576-0.832 0.448-0.192 3.2-4.224 4.928-7.232 0.384-0.704 1.472-2.56 2.368-4.16 2.368-4.096 9.152-17.728 10.24-20.8 6.272-16.96 8.896-27.008 11.136-42.56 1.6-11.072 1.6-31.872 0-42.88-2.304-15.744-4.928-25.728-11.136-42.496-1.152-3.264-8.704-18.496-10.816-21.824-0.832-1.408-1.728-2.944-1.984-3.456-0.832-1.792-9.344-14.08-11.392-16.448-0.704-0.832-2.432-2.88-3.776-4.544-4.544-5.44-17.856-18.368-24.064-23.36-5.312-4.224-15.232-11.136-19.84-13.952-3.2-1.856-17.664-9.152-19.2-9.664-0.896-0.256-3.776-1.408-6.4-2.496-2.624-1.152-6.08-2.432-7.68-2.88s-3.712-1.152-4.8-1.472c-1.024-0.384-4.224-1.28-7.04-1.984-27.84-6.912-56.192-6.912-83.84 0-5.76 1.472-15.04 4.224-17.92 5.44-10.368 4.224-19.392 8.512-26.816 12.608l-2.432 1.408-1.536-1.92c-0.832-1.088-1.536-2.112-1.536-2.304 0-0.256-1.664-3.008-3.712-6.08-2.048-3.136-3.968-6.144-4.16-6.656-0.256-0.512-2.432-3.968-4.928-7.68s-4.672-7.168-4.928-7.68-1.984-3.328-3.84-6.208c-1.856-2.944-3.584-5.632-3.712-6.08-0.384-0.96 3.648-3.264 17.6-10.176 13.312-6.592 14.144-6.976 14.912-6.976 0.448-0.064 1.92-0.576 3.328-1.28s2.816-1.216 3.2-1.28c0.32 0 2.048-0.576 3.84-1.216 10.304-3.904 25.28-7.616 41.92-10.304 9.856-1.664 37.824-2.368 51.84-1.408 20.16 1.408 40.384 6.144 64.512 15.104 6.976 2.624 25.472 11.904 31.488 15.744 1.6 1.088 3.328 2.112 3.84 2.368 3.008 1.408 17.856 12.032 24.64 17.728 7.04 5.824 19.264 17.664 25.28 24.448 2.816 3.2 10.24 12.48 11.52 14.336 0.512 0.832 1.536 2.24 2.304 3.136 1.728 2.176 8.832 12.928 9.408 14.144 0.256 0.512 1.152 2.112 2.048 3.52s2.048 3.456 2.56 4.608c0.512 1.088 1.792 3.392 2.752 5.12 1.6 2.624 3.392 6.592 8.768 19.072 0.832 1.856 1.792 4.288 3.52 9.28 6.016 16.64 9.856 34.048 11.904 53.952 1.152 11.392 0.96 36.288-0.384 47.168-1.792 14.784-6.272 34.88-9.664 43.776-0.704 1.728-1.216 3.52-1.216 3.968s-0.576 2.112-1.216 3.584c-0.64 1.536-1.856 4.48-2.624 6.592-1.664 4.352-11.2 24.064-13.824 28.48-0.96 1.6-2.048 3.456-2.432 4.224-1.728 3.2-12.096 18.176-12.608 18.176-0.32 0-0.576 0.32-0.576 0.704 0 0.64-5.888 8.128-10.496 13.312-1.92 2.176-17.984 18.176-20.544 20.544-0.704 0.64-4.416 3.648-8.32 6.72-6.144 4.928-9.024 7.04-12.992 9.6-0.576 0.384-1.6 1.152-2.304 1.792-2.112 1.792-3.136 1.28-5.696-2.944z" p-id="13066" fill="#bfbfbf"></path></svg>