<?xml version="1.0" standalone="no"?><!DOCTYPE svg PUBLIC "-//W3C//DTD SVG 1.1//EN" "http://www.w3.org/Graphics/SVG/1.1/DTD/svg11.dtd"><svg t="1663314630231" class="icon" viewBox="0 0 1024 1024" version="1.1" xmlns="http://www.w3.org/2000/svg" p-id="8354" xmlns:xlink="http://www.w3.org/1999/xlink" width="32" height="32"><path d="M749.905 818.305c17.551 0 35.062-6.724 48.37-20.031 25.464-25.464 26.818-66.313 3.096-93.407L690.183 577.873c-33.016-37.71-33.016-94.036 0-131.746L801.37 319.133c23.722-27.095 22.368-67.943-3.096-93.407-13.309-13.309-30.816-20.031-48.37-20.031-16.032 0-32.104 5.611-45.038 16.934L577.873 333.817c-18.855 16.508-42.364 24.762-65.873 24.762s-47.018-8.254-65.873-24.762L319.133 222.63c-12.935-11.325-29.003-16.935-45.038-16.934-17.551 0.001-35.062 6.724-48.37 20.031-25.464 25.464-26.818 66.313-3.096 93.407l111.187 126.994c33.016 37.71 33.016 94.036 0 131.746L222.63 704.867c-23.722 27.095-22.368 67.943 3.096 93.407 13.309 13.309 30.816 20.031 48.37 20.031 16.032 0 32.104-5.611 45.038-16.934l126.994-111.187c18.855-16.508 42.364-24.762 65.873-24.762s47.018 8.254 65.873 24.762L704.867 801.37c12.935 11.326 29.003 16.935 45.038 16.935zM512 615.421a149.956 149.956 0 0 0-98.81 37.143L286.197 763.751c-4.299 3.764-8.953 4.554-12.101 4.554-2.849 0-8.328-0.7-13.014-5.386-6.823-6.823-7.189-17.855-0.833-25.115L371.435 610.81c23.952-27.357 37.143-62.449 37.143-98.81s-13.191-71.452-37.143-98.81L260.249 286.197c-6.356-7.26-5.991-18.292 0.833-25.115 4.686-4.686 10.166-5.386 13.017-5.386 3.147 0 7.8 0.79 12.098 4.553l126.994 111.187A149.954 149.954 0 0 0 512 408.579a149.956 149.956 0 0 0 98.81-37.143l126.994-111.187c4.299-3.764 8.953-4.554 12.101-4.554 2.849 0 8.328 0.7 13.014 5.386 6.823 6.823 7.189 17.855 0.833 25.115L652.565 413.19c-23.952 27.357-37.143 62.449-37.143 98.81s13.191 71.452 37.143 98.81l111.187 126.994c6.356 7.26 5.991 18.292-0.833 25.115-4.686 4.686-10.165 5.386-13.014 5.386-3.148 0-7.803-0.79-12.101-4.553L610.81 652.565A149.95 149.95 0 0 0 512 615.421zM192 217a24.925 24.925 0 0 0 17.678-7.322c9.763-9.763 9.763-25.592 0-35.355C204.796 169.441 198.398 167 192 167s-12.796 2.441-17.678 7.322c-9.763 9.763-9.763 25.592 0 35.355A24.922 24.922 0 0 0 192 217zM71.5 312.5c4.882 4.881 11.28 7.322 17.678 7.322s12.796-2.441 17.678-7.322l53.325-53.325c9.763-9.763 9.763-25.592 0-35.355-4.882-4.882-11.28-7.322-17.678-7.322s-12.796 2.441-17.678 7.322L71.5 277.145c-9.763 9.763-9.763 25.592 0 35.355zM241.497 167.503a24.925 24.925 0 0 0 17.678-7.322l53.325-53.325c9.763-9.763 9.763-25.592 0-35.355-4.882-4.882-11.28-7.322-17.678-7.322s-12.796 2.441-17.678 7.322l-53.325 53.325c-9.763 9.763-9.763 25.592 0 35.355a24.925 24.925 0 0 0 17.678 7.322zM832 807a24.925 24.925 0 0 0-17.678 7.322c-9.763 9.763-9.763 25.592 0 35.355C819.204 854.559 825.602 857 832 857s12.796-2.441 17.678-7.322c9.763-9.763 9.763-25.592 0-35.355A24.922 24.922 0 0 0 832 807zM782.503 856.497a24.925 24.925 0 0 0-17.678 7.322L711.5 917.145c-9.763 9.763-9.763 25.592 0 35.355 4.882 4.881 11.28 7.322 17.678 7.322s12.796-2.441 17.678-7.322l53.325-53.325c9.763-9.763 9.763-25.592 0-35.355a24.922 24.922 0 0 0-17.678-7.323zM934.822 704.178a24.925 24.925 0 0 0-17.678 7.322l-53.325 53.325c-9.763 9.763-9.763 25.592 0 35.355a24.925 24.925 0 0 0 17.678 7.322 24.925 24.925 0 0 0 17.678-7.322l53.325-53.325c9.763-9.763 9.763-25.592 0-35.355a24.921 24.921 0 0 0-17.678-7.322zM814.322 209.678C819.204 214.559 825.602 217 832 217s12.796-2.441 17.678-7.322c9.763-9.763 9.763-25.592 0-35.355C844.796 169.441 838.398 167 832 167s-12.796 2.441-17.678 7.322c-9.763 9.763-9.763 25.593 0 35.356zM764.825 160.18a24.92 24.92 0 0 0 17.678 7.322 24.925 24.925 0 0 0 17.678-7.322c9.763-9.763 9.763-25.592 0-35.355L746.855 71.5c-4.882-4.882-11.28-7.322-17.678-7.322s-12.795 2.44-17.677 7.322c-9.763 9.763-9.763 25.592 0 35.355l53.325 53.325zM863.82 259.175l53.325 53.325c4.882 4.881 11.28 7.322 17.678 7.322s12.796-2.441 17.678-7.322c9.763-9.763 9.763-25.592 0-35.355l-53.325-53.325a24.92 24.92 0 0 0-17.678-7.322 24.925 24.925 0 0 0-17.678 7.322c-9.763 9.763-9.763 25.592 0 35.355zM209.678 814.322C204.796 809.441 198.398 807 192 807s-12.796 2.441-17.678 7.322c-9.763 9.763-9.763 25.592 0 35.355C179.204 854.559 185.602 857 192 857s12.796-2.441 17.678-7.322c9.763-9.763 9.763-25.593 0-35.356zM160.18 764.825L106.855 711.5c-4.882-4.881-11.28-7.322-17.678-7.322s-12.795 2.44-17.677 7.322c-9.763 9.763-9.763 25.592 0 35.355l53.325 53.325c4.882 4.881 11.28 7.322 17.678 7.322s12.796-2.441 17.678-7.322c9.762-9.763 9.762-25.592-0.001-35.355zM259.175 863.82c-4.882-4.881-11.28-7.322-17.678-7.322s-12.796 2.441-17.678 7.322c-9.763 9.763-9.763 25.592 0 35.355l53.325 53.325c4.882 4.881 11.28 7.322 17.678 7.322s12.796-2.441 17.678-7.322c9.763-9.763 9.763-25.592 0-35.355l-53.325-53.325z" p-id="8355"></path><path d="M512 437c-41.421 0-75 33.579-75 75s33.579 75 75 75 75-33.579 75-75-33.579-75-75-75z m0 100c-13.785 0-25-11.215-25-25s11.215-25 25-25 25 11.215 25 25-11.215 25-25 25z" p-id="8356"></path></svg>