<?xml version="1.0" standalone="no"?><!DOCTYPE svg PUBLIC "-//W3C//DTD SVG 1.1//EN" "http://www.w3.org/Graphics/SVG/1.1/DTD/svg11.dtd"><svg t="1663314525418" class="icon" viewBox="0 0 1024 1024" version="1.1" xmlns="http://www.w3.org/2000/svg" p-id="4686" xmlns:xlink="http://www.w3.org/1999/xlink" width="32" height="32"><path d="M512 964.608c-61.090816 0-120.367104-11.969536-176.183296-35.57888-53.899264-22.797312-102.300672-55.428096-143.858688-96.987136-41.558016-41.558016-74.189824-89.959424-96.987136-143.858688C71.36256 632.367104 59.392 573.089792 59.392 512s11.97056-120.367104 35.57888-176.183296c22.797312-53.900288 55.42912-102.300672 96.987136-143.858688 41.558016-41.55904 89.959424-74.189824 143.858688-96.987136C391.632896 71.361536 450.909184 59.392 512 59.392s120.367104 11.969536 176.183296 35.57888c53.899264 22.797312 102.300672 55.428096 143.858688 96.987136 41.558016 41.558016 74.189824 89.959424 96.987136 143.858688C952.63744 391.632896 964.608 450.910208 964.608 512c0 88.036352-25.302016 173.3888-73.170944 246.832128-7.719936 11.845632-23.581696 15.186944-35.42528 7.469056-11.844608-7.719936-15.188992-23.580672-7.468032-35.426304C890.978304 665.769984 913.408 590.084096 913.408 512c0-54.201344-10.609664-106.76736-31.53408-156.237824-20.215808-47.797248-49.163264-90.727424-86.035456-127.599616-36.873216-36.873216-79.804416-65.819648-127.60064-86.03648C618.76736 121.201664 566.201344 110.592 512 110.592s-106.76736 10.609664-156.237824 31.53408c-47.796224 20.215808-90.727424 49.163264-127.60064 86.03648-36.872192 36.873216-65.819648 79.803392-86.035456 127.599616C121.201664 405.23264 110.592 457.798656 110.592 512s10.609664 106.76736 31.53408 156.237824c20.215808 47.797248 49.163264 90.727424 86.035456 127.599616 36.873216 36.873216 79.804416 65.819648 127.60064 86.03648C405.23264 902.798336 457.798656 913.408 512 913.408c80.4864 0 158.121984-23.724032 224.513024-68.605952 11.712512-7.917568 27.62752-4.842496 35.546112 6.87104 7.917568 11.712512 4.842496 27.626496-6.87104 35.546112C690.296832 937.846784 602.745856 964.608 512 964.608z" p-id="4687"></path><path d="M307.207168 742.401024c-6.642688 0-13.193216-2.582528-18.10944-7.498752-7.791616-7.791616-9.72288-19.694592-4.795392-29.550592l136.532992-273.067008c2.477056-4.954112 6.494208-8.971264 11.449344-11.44832L705.35168 284.30336c9.856-4.929536 21.757952-2.997248 29.550592 4.795392 7.791616 7.791616 9.72288 19.694592 4.795392 29.550592L603.163648 591.716352c-2.477056 4.954112-6.494208 8.971264-11.449344 11.44832L318.64832 739.69664C315.011072 741.516288 311.093248 742.401024 307.207168 742.401024zM462.814208 462.814208l-98.37056 196.743168 196.742144-98.37056 98.37056-196.743168L462.814208 462.814208z" p-id="4688"></path></svg>