<?xml version="1.0" standalone="no"?><!DOCTYPE svg PUBLIC "-//W3C//DTD SVG 1.1//EN" "http://www.w3.org/Graphics/SVG/1.1/DTD/svg11.dtd"><svg t="1663314986930" class="icon" viewBox="0 0 1024 1024" version="1.1" xmlns="http://www.w3.org/2000/svg" p-id="15187" xmlns:xlink="http://www.w3.org/1999/xlink" width="32" height="32"><path d="M478.03605 495.007C358.18605 507.88 270.63805 593.762 247.01905 633.34c-14.787 24.778-6.69 56.847 18.085 71.633 8.393 5.008 17.616 7.393 26.726 7.393 17.787 0 35.132-9.092 44.91-25.479 10.072-16.874 71.244-79.269 152.452-87.991 68.809-7.376 137.709 25.217 204.772 96.912 19.715 21.063 52.775 22.166 73.843 2.459 21.071-19.711 22.175-52.771 2.468-73.843-112.98-120.767-221.263-137.027-292.239-129.417z" p-id="15188" fill="#bfbfbf"></path><path d="M513.39305 700.749c-55.4 0-100.31 44.907-100.31 100.306s44.91 100.307 100.31 100.307c55.395 0 100.306-44.908 100.306-100.307S568.78805 700.749 513.39305 700.749zM1008.17105 350.85C840.37705 187.594 660.63005 111.217 473.93005 123.848c-108.92 7.369-220.504 46.655-322.681 113.614C72.00105 289.396 22.28105 341.825 11.11405 356.097c-17.783 22.72-13.815 55.605 8.907 73.387 9.568 7.49 20.923 11.122 32.191 11.122 15.49 0 30.817-6.865 41.107-20.017 7.055-8.749 50.226-53.609 118.01-97.563 61.02-39.57 157.938-88.2 273.119-95.15 154.619-9.298 306.324 57.237 450.861 197.862 20.684 20.125 53.752 19.669 73.873-1.012 20.122-20.682 19.671-53.757-1.011-73.876z" p-id="15189" fill="#bfbfbf"></path><path d="M487.43005 307.044c-197.071 9.085-329.162 149.714-353.641 177.811-18.954 21.756-16.681 54.758 5.074 73.709 9.901 8.624 22.122 12.852 34.296 12.852 14.578 0 29.085-6.07 39.416-17.926 11.998-13.775 121.8-134.792 279.667-142.069 107.595-4.936 216.103 44.011 322.504 145.547 20.882 19.924 53.945 19.151 73.861-1.728 19.924-20.873 19.148-53.944-1.726-73.862C759.02805 359.37 624.62705 300.719 487.43005 307.044z" p-id="15190" fill="#bfbfbf"></path></svg>