<?xml version="1.0" standalone="no"?><!DOCTYPE svg PUBLIC "-//W3C//DTD SVG 1.1//EN" "http://www.w3.org/Graphics/SVG/1.1/DTD/svg11.dtd"><svg t="1685408239285" class="icon" viewBox="0 0 1335 1024" version="1.1" xmlns="http://www.w3.org/2000/svg" p-id="2898" xmlns:xlink="http://www.w3.org/1999/xlink" width="83.4375" height="64"><path d="M801.37681156 897.70869599h33.14347821a32.12608711 32.12608711 0 1 1 0 64.29130401h-327.28695644a32.12608711 32.12608711 0 1 1 0-64.29130401h33.10434756v-64.29130487h261.03913066v64.29130487z m50.59565243-598.42173955l5.86956533 180.58695645H482.07246399l5.86956533-180.58695645h364.06956446z m80.06086934 0h294.53478222l13.73478311 180.58695645H937.94202932l-5.86956532-180.58695645zM867.31159378 769.08695645H472.563768l6.88695645-210.16956533h380.97391289l6.88695644 210.16956533z m80.06087021-1e-8l-6.84782665-210.16956532h305.80434843l10.64347822 140.00869599a65.23043467 65.23043467 0 0 1-65.0347831 70.16086933h-244.5652169zM844.22463734 62l5.16521776 158.16521778h-358.90434755L495.65072445 62h348.57391289z m80.06087021 0h223.78695644c34.08260888 0 62.41304356 26.25652177 64.99565156 60.26086934l7.43478311 97.90434844h-291.05217421L924.28550755 62zM407.84202932 299.28695645l-5.90869599 180.58695644H100.27681155l13.73478223-180.58695644h293.83043554zM392.463768 769.08695645H148.64202932a65.23043467 65.23043467 0 0 1-65.0347831-70.16086934L94.25072445 558.95652177h305.1l-6.84782579 210.16956534zM415.55072445 62l-5.1652169 158.16521778H120.03768089l7.43478311-97.90434844C130.09420266 88.25652178 158.38550755 62 192.50724622 62h223.04347823z" p-id="2899" fill="#ffffff"></path></svg>