<?xml version="1.0" standalone="no"?><!DOCTYPE svg PUBLIC "-//W3C//DTD SVG 1.1//EN" "http://www.w3.org/Graphics/SVG/1.1/DTD/svg11.dtd"><svg t="1685408274249" class="icon" viewBox="0 0 1024 1024" version="1.1" xmlns="http://www.w3.org/2000/svg" p-id="3149" xmlns:xlink="http://www.w3.org/1999/xlink" width="64" height="64"><path d="M461.957442 727.60083a23.144636 23.144636 0 0 1-22.913652-25.962645l19.841559-158.824867h-89.321663a23.075341 23.075341 0 0 1-21.088875-32.476406l92.393756-207.885951a23.098439 23.098439 0 0 1 21.111973-13.720473h115.492195a23.121537 23.121537 0 0 1 21.45845 31.66796l-33.538933 83.824235h81.375801a23.098439 23.098439 0 0 1 19.217901 35.894975l-184.787512 277.181268c-4.388703 6.583055-11.68781 10.301904-19.241 10.301904z m-56.845259-230.98439h79.943698a23.098439 23.098439 0 0 1 22.93675 25.962645l-10.971759 87.704773 106.576198-159.864297h-72.321213a23.121537 23.121537 0 0 1-21.45845-31.667959l33.538934-83.824236h-66.361815l-71.882343 161.689074z" fill="#ffffff" p-id="3150"></path><path d="M508.177418 854.642245c-191.047189 0-346.476586-155.429396-346.476585-346.476586s155.429396-346.476586 346.476585-346.476586 346.476586 155.429396 346.476586 346.476586-155.429396 346.476586-346.476586 346.476586z m0-646.756294c-165.569611 0-300.279708 134.710097-300.279707 300.279708s134.710097 300.279708 300.279707 300.279708 300.279708-134.710097 300.279708-300.279708-134.710097-300.279708-300.279708-300.279708zM508.177418 115.492195a23.098439 23.098439 0 0 1-23.098439-23.098439v-69.295317a23.098439 23.098439 0 1 1 46.196878 0v69.295317a23.098439 23.098439 0 0 1-23.098439 23.098439zM802.174351 237.290264a23.075341 23.075341 0 0 1-16.330597-39.429035l48.991789-49.014888a23.075341 23.075341 0 1 1 32.661193 32.661193l-48.991789 49.014888a23.029144 23.029144 0 0 1-16.330596 6.767842zM993.244638 531.264098h-69.295317a23.098439 23.098439 0 1 1 0-46.196878h69.295317a23.098439 23.098439 0 1 1 0 46.196878zM851.16614 874.275918a23.029144 23.029144 0 0 1-16.330597-6.767843l-48.991789-49.014887a23.075341 23.075341 0 1 1 32.661193-32.661193l48.991789 49.014888a23.075341 23.075341 0 0 1-16.330596 39.429035zM508.177418 1016.331318a23.098439 23.098439 0 0 1-23.098439-23.098439v-69.295317a23.098439 23.098439 0 1 1 46.196878 0v69.295317a23.098439 23.098439 0 0 1-23.098439 23.098439zM165.188697 874.275918a23.075341 23.075341 0 0 1-16.330597-39.429035l48.99179-49.014888a23.075341 23.075341 0 1 1 32.661192 32.661193l-48.991789 49.014887a23.075341 23.075341 0 0 1-16.330596 6.767843zM92.405515 531.264098h-69.295317a23.098439 23.098439 0 1 1 0-46.196878h69.295317a23.098439 23.098439 0 1 1 0 46.196878zM214.180486 237.290264a23.029144 23.029144 0 0 1-16.330596-6.767842L148.8581 181.507534a23.075341 23.075341 0 1 1 32.661193-32.661193l48.991789 49.014888a23.075341 23.075341 0 0 1-16.330596 39.429035z" fill="#ffffff" p-id="3151"></path></svg>