<?xml version="1.0" standalone="no"?><!DOCTYPE svg PUBLIC "-//W3C//DTD SVG 1.1//EN" "http://www.w3.org/Graphics/SVG/1.1/DTD/svg11.dtd"><svg t="1724317517376" class="icon" viewBox="0 0 1024 1024" version="1.1" xmlns="http://www.w3.org/2000/svg" p-id="10978" width="32" height="32" xmlns:xlink="http://www.w3.org/1999/xlink"><path d="M866.742857 438.857143h-190.171428L658.285714 354.742857h87.771429c18.285714 0 29.257143-14.628571 29.257143-29.257143s-14.628571-29.257143-29.257143-29.257143h-102.4l-32.914286-146.285714c-3.657143-14.628571-14.628571-21.942857-29.257143-21.942857h-135.314285c-14.628571 0-25.6 10.971429-29.257143 21.942857l-32.914286 146.285714H277.942857c-14.628571 3.657143-29.257143 14.628571-29.257143 32.914286 0 14.628571 14.628571 29.257143 29.257143 29.257143H365.714286L347.428571 438.857143H157.257143c-18.285714 0-29.257143 10.971429-29.257143 29.257143 0 14.628571 14.628571 29.257143 29.257143 29.257143h175.542857l-80.457143 358.4v10.971428c0 7.314286 3.657143 14.628571 7.314286 18.285714l3.657143 3.657143c7.314286 3.657143 14.628571 7.314286 21.942857 7.314286 10.971429 0 21.942857-7.314286 29.257143-14.628571l193.828571-208.457143 215.771429 215.771428 3.657143 3.657143c7.314286 3.657143 14.628571 7.314286 21.942857 7.314286 7.314286 0 14.628571-3.657143 21.942857-7.314286 7.314286-3.657143 10.971429-10.971429 10.971428-18.285714v-7.314286l-84.114285-362.057143h175.542857c18.285714 0 29.257143-14.628571 29.257143-29.257143-7.314286-21.942857-21.942857-36.571429-36.571429-36.571428zM468.114286 186.514286h87.771428l25.6 113.371428h-138.971428l25.6-113.371428z m-40.228572 168.228571h164.571429l18.285714 84.114286h-204.8l21.942857-84.114286zM336.457143 764.342857l47.542857-212.114286 76.8 76.8-124.342857 135.314286z m164.571428-179.2l-87.771428-87.771428H585.142857L501.028571 585.142857z m43.885715 43.885714l91.428571-95.085714 54.857143 241.371429-146.285714-146.285715z" fill="#666666" p-id="10979"></path></svg>