<?xml version="1.0" standalone="no"?><!DOCTYPE svg PUBLIC "-//W3C//DTD SVG 1.1//EN" "http://www.w3.org/Graphics/SVG/1.1/DTD/svg11.dtd"><svg t="1724317456526" class="icon" viewBox="0 0 1072 1024" version="1.1" xmlns="http://www.w3.org/2000/svg" p-id="9325" xmlns:xlink="http://www.w3.org/1999/xlink" width="16.75" height="16"><path d="M828.8651074 491.64657239a22.79583899 22.79583899 0 0 0 0-4.55916842 24.74976808 24.74976808 0 0 0-24.74976808-24.74976808h-156.63998158l-29.3089365-148.17295573h89.55508273a24.74976808 24.74976808 0 0 0 0-49.49953695h-97.69645423l-21.49322009-108.44306427A49.82519205 49.82519205 0 0 0 540.00925801 116.4921875H429.61226463A49.17388184 49.17388184 0 0 0 382.06665678 156.22207894l-21.8188752 108.44306427h-97.69645424a24.74976808 24.74976808 0 1 0 0 49.49953695H349.50117152l-29.63459082 148.17295572H162.57528891a24.74976808 24.74976808 0 1 0 0 49.49953694h147.52164628L237.15024905 877.87322166a7.16440696 7.16440696 0 0 0 1e-8 2.60523855 14.00315881 14.00315881 0 0 0 0 5.21047785v4.23351254a27.3550074 27.3550074 0 0 0 1.9539291 4.55916765 15.30577769 15.30577769 0 0 0 2.93089364 3.9078582v1.95392909h1.9539291l7.8157164 3.9078582 4.55916842 1.62827477H270.36704375l4.23351331-1.9539291a12.37488405 12.37488405 0 0 0 4.23351253-2.93089365s1.62827399 0 1.9539291-1.62827477l204.83689962-215.5835089 204.18558943 215.5835089a19.86494533 19.86494533 0 0 0 5.21047785 3.9078582h2.60523854a26.37804284 26.37804284 0 0 0 10.09529984 4.23351331h6.51309751a15.30577769 15.30577769 0 0 0 4.88482276-1.9539291l3.9078582-2.27958421 1.62827399-1.9539291 2.93089364-3.9078582a36.47334269 36.47334269 0 0 0 1.628274-4.23351254 28.98328139 28.98328139 0 0 0 0-4.55916764 12.37488405 12.37488405 0 0 0 0-4.88482275v-2.60523931l-11.07226439-56.01263369h17.91101624c151.10384937 0 227.95839372-122.12056798 227.95839371-174.22534346 1.9539291-42.33512998-44.61471419-124.07449708-135.14676223-159.24522011z m-398.60153333-325.65484794h107.46609973l19.53929101 97.69645422H410.39862796z m-29.63459084 148.49861005h166.40962707l29.96024596 148.17295573h-227.95839373z m-97.696455 488.48227192l51.12781172-256.29036489 95.74252512 100.30169277z m181.38975043-191.15939592L388.57975353 511.51151773h190.50808572z m253.03381691 169.01486638a179.76147566 179.76147566 0 0 1-26.37804285-1.9539291 205.48820906 205.48820906 0 0 1-53.08174004-14.0031588c-65.13096974-26.05238774-108.11740917-78.48281833-108.11740917-116.58443502a133.84414259 133.84414259 0 0 1 65.13096898-93.78859603 225.3531544 225.3531544 0 0 1 45.59167875-24.42411375 213.95523491 213.95523491 0 0 1 76.52888923-13.3518486c103.55824153 0 187.57719205 80.43674744 187.57719205 132.86717726s-84.01895052 131.56455837-187.57719205 131.56455915z" p-id="9326"></path><path d="M737.03044047 561.98801922a86.62418984 86.62418984 0 0 0 0 172.9227238 86.62418984 86.62418984 0 1 0 0-172.9227238z m0 130.26193871a44.94036931 44.94036931 0 1 1 44.9403693-44.94036853 44.94036931 44.94036931 0 0 1-44.9403693 46.24298819z" p-id="9327"></path></svg>