<?xml version="1.0" standalone="no"?><!DOCTYPE svg PUBLIC "-//W3C//DTD SVG 1.1//EN" "http://www.w3.org/Graphics/SVG/1.1/DTD/svg11.dtd"><svg t="1642742865630" class="icon" viewBox="0 0 1024 1024" version="1.1" xmlns="http://www.w3.org/2000/svg" p-id="5740" xmlns:xlink="http://www.w3.org/1999/xlink" width="64" height="64"><defs><style type="text/css"></style></defs><path d="M287.9 785l120.6-131.8c54.2-54.2 158.3-54.2 212.5 0L741.6 785c12.6 13.6 34 14 47.1 0.9 13.1-13.1 12.7-34.5-0.9-47.1L656 618.2c-54.2-54.2-54.2-158.3 0-212.5l131.8-120.6c13.6-12.6 14-34 0.9-47.1-13.1-13.1-34.5-12.7-47.1 0.9L621 370.7c-54.2 54.2-158.3 54.2-212.5 0L287.9 238.8c-12.6-13.6-34-14-47.1-0.9-13.1 13.1-12.7 34.5 0.9 47.1l131.8 120.6c54.2 54.2 54.2 158.3 0 212.5L241.7 738.7c-13.6 12.6-14 34-0.9 47.1 13.1 13.2 34.5 12.8 47.1-0.8z m184.8-315.1c23.2-23.2 60.9-23.2 84.1 0 23.2 23.2 23.2 60.9 0 84.1-23.2 23.2-60.9 23.2-84.1 0-23.2-23.3-23.2-60.9 0-84.1z" fill="#1296db" p-id="5741"></path><path d="M765.6 805.5h-0.8c-11.7-0.2-22.6-5.1-30.5-13.7L613.8 660.1c-50-49.8-148-49.8-198 0L295.3 791.8c-8 8.6-18.8 13.4-30.5 13.7-11.7 0.3-22.7-4.2-31-12.5s-12.7-19.3-12.5-31c0.2-11.7 5.1-22.6 13.7-30.5L366.7 611c23.9-24 37.5-60 37.5-99s-13.7-75.1-37.5-99L234.9 292.5c-8.6-8-13.5-18.9-13.7-30.6-0.2-11.7 4.2-22.7 12.5-31s19.3-12.7 31-12.5c11.7 0.2 22.6 5.1 30.5 13.7l120.5 131.7c50 49.8 148 49.8 198 0l120.4-131.7c8-8.6 18.9-13.5 30.6-13.7 11.7-0.2 22.7 4.2 31 12.5s12.7 19.3 12.5 31c-0.2 11.7-5.1 22.6-13.7 30.5L662.9 412.9c-49.8 50-49.8 148 0 198l131.7 120.4c8.6 8 13.5 18.9 13.7 30.6 0.2 11.7-4.2 22.7-12.5 31-8.1 8.1-18.8 12.6-30.2 12.6z m-250.8-203c44.3 0 85.6 15.9 113.3 43.6l0.3 0.3L749 778.2c4.2 4.5 10 7.1 16.2 7.2 6.2 0.1 12.1-2.2 16.5-6.7s6.8-10.3 6.7-16.5c-0.1-6.2-2.7-12-7.3-16.2l-132-120.7-0.2-0.2c-27.7-27.7-43.6-69-43.6-113.3s15.9-85.6 43.6-113.3l0.3-0.3L781 277.6c4.5-4.2 7.1-10 7.2-16.2 0.1-6.2-2.2-12.1-6.7-16.5-4.4-4.4-10.2-6.8-16.5-6.7-6.2 0.1-12 2.7-16.2 7.3l-120.7 132-0.2 0.2c-27.7 27.7-69 43.6-113.3 43.6s-85.6-15.9-113.3-43.6l-0.3-0.3-120.4-131.8c-4.2-4.5-10-7.1-16.2-7.2-6.2-0.1-12.1 2.2-16.5 6.7-4.4 4.4-6.8 10.3-6.7 16.5s2.7 12 7.3 16.2l132 120.7 0.2 0.2c27.7 27.7 43.6 69 43.6 113.3s-15.9 85.6-43.6 113.3l-0.3 0.3-132 120.5c-4.5 4.2-7.1 10-7.2 16.2-0.1 6.2 2.2 12.1 6.7 16.5s10.3 6.8 16.5 6.7c6.2-0.1 12-2.7 16.2-7.2l120.7-132 0.2-0.2c27.6-27.7 68.9-43.6 113.3-43.6zM287.9 785z m226.9-203.7c-17.8 0-35.6-6.8-49.1-20.3-27.1-27.1-27.1-71.1 0-98.2 27.1-27.1 71.1-27.1 98.2 0 27.1 27.1 27.1 71.1 0 98.2-13.6 13.6-31.4 20.3-49.1 20.3z m0-118.8c-12.7 0-25.3 4.8-35 14.5-19.3 19.3-19.3 50.7 0 69.9 19.3 19.3 50.7 19.3 69.9 0 19.3-19.3 19.3-50.7 0-69.9-9.6-9.7-22.3-14.5-34.9-14.5z" fill="#1296db" p-id="5742"></path><path d="M786.7 925.8c-35.9 0-71.7-13.6-99-40.9-22.5-22.5-36.8-52.3-40.2-83.9-3.4-31.1 3.9-62.8 20.4-89.2 2.9-4.7 9.1-6.1 13.8-3.2 4.7 2.9 6.1 9.1 3.2 13.8-29.7 47.6-22.7 108.6 17 148.4 46.8 46.8 122.9 46.8 169.7 0 22.7-22.7 35.2-52.8 35.2-84.9 0-32.1-12.5-62.2-35.2-84.9-39.6-39.6-100.4-46.7-148-17.3-4.7 2.9-10.9 1.5-13.8-3.2-2.9-4.7-1.5-10.9 3.2-13.8 26.4-16.3 58-23.5 89-20 31.5 3.5 61.2 17.7 83.6 40.2 26.4 26.4 41 61.6 41 99s-14.6 72.6-41 99c-27.2 27.2-63 40.9-98.9 40.9zM258.4 910.2c-35.9 0-71.7-13.6-99-40.9-54.6-54.6-54.6-143.4 0-198 22.4-22.4 52.1-36.7 83.6-40.2 31-3.4 62.6 3.7 89 20 4.7 2.9 6.1 9.1 3.2 13.8-2.9 4.7-9.1 6.2-13.8 3.2-47.5-29.4-108.4-22.3-147.9 17.3-46.8 46.8-46.8 122.9 0 169.7 23.4 23.4 54.1 35.1 84.9 35.1 30.7 0 61.5-11.7 84.9-35.1 39.9-39.9 46.8-101 16.9-148.6-2.9-4.7-1.5-10.8 3.1-13.8 4.7-2.9 10.8-1.5 13.8 3.1 16.6 26.4 23.9 58.1 20.6 89.3-3.4 31.7-17.7 61.5-40.2 84.1-27.4 27.4-63.2 41-99.1 41zM242.8 378.4c-5.3 0-10.6-0.3-15.9-0.9-31.7-3.6-60.4-17.5-83-40.1-54.6-54.6-54.6-143.4 0-198 26.4-26.4 61.6-41 99-41s72.6 14.6 99 41c22.5 22.5 36.8 52.3 40.2 83.9 3.4 31.1-3.9 62.8-20.3 89.2-2.9 4.7-9.1 6.1-13.8 3.2-4.7-2.9-6.1-9.1-3.2-13.8 29.7-47.6 22.7-108.6-17-148.3-46.8-46.8-122.9-46.8-169.7 0-46.8 46.8-46.8 122.9 0 169.7 39.2 39.2 99.6 46.5 147 17.9 4.7-2.9 10.9-1.3 13.7 3.4 2.9 4.7 1.3 10.9-3.4 13.7-21.8 13.2-47.1 20.1-72.6 20.1zM772.1 394.8c-25.5 0-50.7-6.9-72.5-20.1-4.7-2.9-6.2-9-3.4-13.7 2.9-4.7 9-6.2 13.7-3.4 47.3 28.6 107.7 21.2 146.9-17.9 46.8-46.8 46.8-122.9 0-169.7-22.7-22.7-52.8-35.2-84.9-35.2S709.7 147.3 687 170c-39.5 39.5-46.6 100.2-17.4 147.7 2.9 4.7 1.4 10.9-3.3 13.8-4.7 2.9-10.9 1.4-13.8-3.3-16.2-26.4-23.3-57.9-19.8-88.9 3.5-31.4 17.8-61.1 40.1-83.5 26.4-26.4 61.6-41 99-41s72.6 14.6 99 41c54.6 54.6 54.6 143.4 0 198-22.6 22.6-51.3 36.4-82.9 40.1-5.2 0.6-10.5 0.9-15.8 0.9z" fill="#1296db" p-id="5743"></path></svg>