<?xml version="1.0" standalone="no"?><!DOCTYPE svg PUBLIC "-//W3C//DTD SVG 1.1//EN" "http://www.w3.org/Graphics/SVG/1.1/DTD/svg11.dtd"><svg t="1646200817104" class="icon" viewBox="0 0 1024 1024" version="1.1" xmlns="http://www.w3.org/2000/svg" p-id="3088" xmlns:xlink="http://www.w3.org/1999/xlink" width="64" height="64"><defs><style type="text/css"></style></defs><path d="M684.508 227.702V2.987l281.581 281.58H741.434a56.925 56.925 0 0 1-56.926-56.865z" p-id="3089"></path><path d="M733.669 296.215a62.839 62.839 0 0 1-62.78-62.78V0H170.687A113.791 113.791 0 0 0 56.896 113.791V910.21A113.791 113.791 0 0 0 170.686 1024h682.627a113.791 113.791 0 0 0 113.493-113.791V296.215zM273.726 756.516a16.725 16.725 0 0 1-7.885-4.3c-11.409-11.35 0-38.827 6.989-53.76a34.346 34.346 0 0 1 15.351-14.276c22.997-10.633 74.367-35.302 84.88-24.73 2.748 2.808 2.748 7.945-1.373 16.487a282.477 282.477 0 0 0-28.493 96.349z m204.883 118.39a34.526 34.526 0 0 1-14.276 15.412c-14.634 7.168-41.813 18.338-53.76 6.929a17.92 17.92 0 0 1-4.24-7.885l-16.069-69.41a284.03 284.03 0 0 0 96.708-28.552c8.482-4.121 13.738-4.121 16.426-1.374 10.573 10.394-14.096 61.943-24.729 84.88zM667.724 637.11l5.973 172.33s2.927 48.861-9.737 77.652-26.82 56.328-32.733 58a9.617 9.617 0 0 1-9.677-2.986 25.446 25.446 0 0 1-5.615-9.378s-60.987-172.867-69.23-196.7c-117.853 83.029-159.367 64.392-167.79 58.419a21.564 21.564 0 0 1-1.792-1.494l-4.36-4.42a19.294 19.294 0 0 1-1.494-1.732c-5.973-8.422-24.848-50.176 58.957-168.805L230.12 547.213a27.417 27.417 0 0 1-9.378-5.974 9.438 9.438 0 0 1-2.569-9.617c1.613-5.973 29.03-20.13 57.941-32.733s77.653-9.737 77.653-9.737l176.988 5.973c82.55-89.599 149.93-135.235 200.404-136.25a70.365 70.365 0 0 1 50.952 19.114l2.449 2.27a31.3 31.3 0 0 1 2.27 2.45 69.828 69.828 0 0 1 19.114 50.951c-0.657 51.729-47.248 119.824-138.162 203.45z" p-id="3090"></path></svg>