<?xml version="1.0" standalone="no"?><!DOCTYPE svg PUBLIC "-//W3C//DTD SVG 1.1//EN" "http://www.w3.org/Graphics/SVG/1.1/DTD/svg11.dtd"><svg t="1646202731626" class="icon" viewBox="0 0 1137 1024" version="1.1" xmlns="http://www.w3.org/2000/svg" p-id="7580" xmlns:xlink="http://www.w3.org/1999/xlink" width="71.0625" height="64"><defs><style type="text/css"></style></defs><path d="M806.695253 300.942222c0.284444-5.233778 0.739556-10.752 1.251556-16.497778l4.039111-223.402666a24.064 24.064 0 0 1 16.668444-21.617778 26.737778 26.737778 0 0 1 27.704889 6.257778l276.309334 296.049778c5.688889 7.054222 6.712889 16.497778 2.673777 24.519111a25.6 25.6 0 0 1-22.016 13.653333h-193.080888a46.193778 46.193778 0 0 1-10.467556 1.137778H43.018809a44.942222 44.942222 0 0 1-30.435556-11.776A38.456889 38.456889 0 0 1 0.010809 340.992c0-22.072889 19.228444-39.992889 43.008-39.992889h763.619555z m287.402667 343.153778c23.722667 0 43.008 17.92 43.008 40.049778 0 22.129778-19.285333 40.049778-43.008 40.049778H331.104142l-1.251555 15.36-3.982223 223.402666a24.064 24.064 0 0 1-16.725333 21.617778 26.737778 26.737778 0 0 1-27.704889-6.257778L5.130809 682.211556a22.584889 22.584889 0 0 1-2.673778-24.576 25.6 25.6 0 0 1 22.016-13.653334h300.942222l768.682667 0.056889z" p-id="7581"></path></svg>