<?xml version="1.0" standalone="no"?><!DOCTYPE svg PUBLIC "-//W3C//DTD SVG 1.1//EN" "http://www.w3.org/Graphics/SVG/1.1/DTD/svg11.dtd"><svg t="1640324422537" class="icon" viewBox="0 0 1408 1024" version="1.1" xmlns="http://www.w3.org/2000/svg" p-id="4745" xmlns:xlink="http://www.w3.org/1999/xlink" width="88" height="64"><defs><style type="text/css"></style></defs><path d="M1236.806235 0c-94.510279 0-171.167906 78.321315-171.167906 174.815222 0 49.270762 20.348185 96.237955 56.05349 129.319753L963.321514 539.802787a168.544398 168.544398 0 0 0-184.605387 29.050553L592.894969 403.57233c29.242517-91.822783-19.964257-190.428295-109.8674-220.246704-89.967131-29.818409-186.525027 20.476161-215.703556 112.234956a176.926826 176.926826 0 0 0 61.172531 194.651503L220.420808 681.216272c-90.670999-27.514841-186.077111 25.147285-213.080048 117.737924-26.874961 92.590639 24.699369 190.044367 115.370368 217.559208 90.670999 27.514841 186.013123-25.211273 213.01606-117.737924a177.246766 177.246766 0 0 0-51.830282-181.917891l110.955196-196.251203a169.184278 169.184278 0 0 0 160.609886-52.21421l180.510154 160.609886c-37.944885 88.367431 1.407736 191.452103 87.983503 230.228832 86.575767 38.776729 187.548835-1.471724 225.557708-89.839155a177.694682 177.694682 0 0 0-28.090733-185.501218l163.105418-242.642505c90.031119 29.434481 186.397051-21.116041 215.255639-113.130788 28.794601-91.886771-20.732113-190.300319-110.763232-219.798788a167.904518 167.904518 0 0 0-52.278198-8.31844z" p-id="4746"></path></svg>