<?xml version="1.0" standalone="no"?><!DOCTYPE svg PUBLIC "-//W3C//DTD SVG 1.1//EN" "http://www.w3.org/Graphics/SVG/1.1/DTD/svg11.dtd"><svg t="1647237234151" class="icon" viewBox="0 0 1335 1024" version="1.1" xmlns="http://www.w3.org/2000/svg" p-id="2721" xmlns:xlink="http://www.w3.org/1999/xlink" width="83.4375" height="64"><defs><style type="text/css"></style></defs><path d="M1075.645217 472.375652c-86.149565-142.024348-259.428174-211.478261-424.292174-169.894956-57.165913-66.29287-147.456-96.612174-234.807652-78.892522-87.351652 17.719652-157.42887 80.62887-182.227478 163.528348-24.754087 82.899478-0.178087 172.210087 63.933217 232.269913a226.170435 226.170435 0 0 0-85.793391 176.217043c0.623304 109.523478 80.940522 203.330783 192.066783 224.434087V1024h644.897391c157.96313-0.089043 286.052174-123.904 286.141217-276.658087-1.157565-142.425043-113.307826-261.075478-259.962434-274.921739z m-623.749565 172.165565l4.051478-28.404869a282.134261 282.134261 0 0 1 98.081392-173.81287 302.34713 302.34713 0 0 1 193.669565-70.344348c90.022957 0 175.727304 40.292174 231.334956 107.475479a291.483826 291.483826 0 0 0-160.189217 103.424 40.381217 40.381217 0 0 0-8.102956 30.185739c2.31513 16.384 14.692174 29.696 31.25426 33.702956a42.473739 42.473739 0 0 0 43.942957-15.538087 202.529391 202.529391 0 0 1 161.792-79.026087c111.215304 0 202.039652 87.663304 202.039652 195.138783 0 107.52-90.824348 195.31687-202.039652 195.31687H447.75513c-83.21113-1.157565-150.127304-66.56-150.394434-147.055305 0-71.101217 52.224-131.917913 125.017043-144.517565l29.473391-6.366609v-0.178087z m-141.445565-191.087304c0-83.789913 71.145739-152.531478 157.874087-152.531478 36.641391 0 71.858087 12.599652 98.838261 33.970087a390.322087 390.322087 0 0 0-68.697044 45.857391 372.112696 372.112696 0 0 0-120.965565 195.895652c-0.845913 0-0.845913 0-1.691826 0.845913a150.973217 150.973217 0 0 1-65.357913-124.037565z m409.555478-205.467826h0.845913a41.093565 41.093565 0 0 0 29.384348-11.798261l52.224-48.261565a40.603826 40.603826 0 0 0 13.04487-29.072696 40.514783 40.514783 0 0 0-12.198957-29.384348 43.408696 43.408696 0 0 0-30.096696-12.599652 43.453217 43.453217 0 0 0-30.408347 11.753739l-52.357566 48.261566a40.425739 40.425739 0 0 0-0.845913 58.412521c8.013913 7.969391 18.921739 12.510609 30.408348 12.688696zM456.793043 153.956174c11.308522 0.222609 22.26087-4.051478 30.274783-11.798261a39.579826 39.579826 0 0 0 12.109913-29.250783V42.562783c-0.089043-22.706087-19.055304-41.049043-42.473739-41.138087-23.418435 0.089043-42.384696 18.432-42.473739 41.093565v70.299826a40.247652 40.247652 0 0 0 12.377043 29.161739c8.013913 7.746783 18.877217 12.02087 30.185739 12.02087zM115.934609 394.952348L43.987478 392.592696a43.097043 43.097043 0 0 0-40.114087 24.264347c-7.123478 15.137391-4.229565 32.946087 7.390609 45.234087 7.92487 8.013913 18.832696 12.55513 30.274783 12.644174l74.395826 2.359653a42.829913 42.829913 0 0 0 29.918608-11.664696 40.069565 40.069565 0 0 0 12.599653-28.672c-0.178087-22.750609-19.010783-41.271652-42.518261-41.850435z m118.472348-188.950261a40.603826 40.603826 0 0 0-13.000348-29.117217L169.004522 128.623304a43.008 43.008 0 0 0-30.45287-11.931826 42.874435 42.874435 0 0 0-30.052174 12.733218 40.292174 40.292174 0 0 0-12.288 29.428869c0.133565 10.99687 4.897391 21.504 13.089392 29.072696l52.357565 48.261565c12.466087 11.575652 30.853565 14.870261 46.747826 8.281044a41.449739 41.449739 0 0 0 25.956174-38.466783z" fill="#bfbfbf" p-id="2722"></path></svg>